<svg width="0" height="0" class="hidden">
  <symbol fill="none" xmlns="http://www.w3.org/2000/svg" viewBox="0 0 40 40" id="icon-bills">
    <path d="M33.7933 25.0883L32.5 25.735L31.2067 25.0883C31.0908 25.0303 30.9629 25 30.8333 25C30.7037 25 30.5759 25.0303 30.46 25.0883L29.1667 25.735L28.3333 25.3183V7.49999C28.3333 7.35789 28.297 7.21814 28.2277 7.09404C28.1585 6.96994 28.0587 6.8656 27.9378 6.79095C27.8169 6.71629 27.6789 6.6738 27.5369 6.6675C27.3949 6.66121 27.2537 6.69133 27.1267 6.75499L25.8333 7.40166L24.54 6.75499C24.4241 6.69692 24.2963 6.66669 24.1667 6.66669C24.037 6.66669 23.9092 6.69692 23.7933 6.75499L22.5 7.40166L21.2067 6.75499C21.0908 6.69692 20.9629 6.66669 20.8333 6.66669C20.7037 6.66669 20.5759 6.69692 20.46 6.75499L19.1667 7.40166L17.8733 6.75499C17.7574 6.69692 17.6296 6.66669 17.5 6.66669C17.3704 6.66669 17.2425 6.69692 17.1267 6.75499L15.8333 7.40166L14.54 6.75499C14.4241 6.69692 14.2963 6.66669 14.1667 6.66669C14.037 6.66669 13.9092 6.69692 13.7933 6.75499L12.5 7.40166L11.2067 6.75499C11.0908 6.69692 10.9629 6.66669 10.8333 6.66669C10.7037 6.66669 10.5759 6.69692 10.46 6.75499L9.16666 7.40166L7.87333 6.75499C7.74628 6.69133 7.60506 6.66121 7.4631 6.6675C7.32113 6.6738 7.18313 6.71629 7.06221 6.79095C6.94129 6.8656 6.84148 6.96994 6.77225 7.09404C6.70301 7.21814 6.66667 7.35789 6.66666 7.49999V30.8333C6.66666 31.9384 7.10565 32.9982 7.88705 33.7796C8.66845 34.561 9.72826 35 10.8333 35H30.8333C31.9384 35 32.9982 34.561 33.7796 33.7796C34.561 32.9982 35 31.9384 35 30.8333V25.8333C35 25.6912 34.9636 25.5515 34.8944 25.4274C34.8252 25.3033 34.7254 25.1989 34.6044 25.1243C34.4835 25.0496 34.3455 25.0071 34.2036 25.0008C34.0616 24.9945 33.9204 25.0247 33.7933 25.0883ZM17.5 16.6667C17.4972 17.4035 17.2504 18.1187 16.7981 18.7004C16.3458 19.282 15.7135 19.6975 15 19.8817V27.5C15 27.721 14.9122 27.933 14.7559 28.0892C14.5996 28.2455 14.3877 28.3333 14.1667 28.3333C13.9457 28.3333 13.7337 28.2455 13.5774 28.0892C13.4211 27.933 13.3333 27.721 13.3333 27.5V19.8817C12.6199 19.6975 11.9876 19.282 11.5352 18.7004C11.0829 18.1187 10.8361 17.4035 10.8333 16.6667V14.1667C10.8333 13.9456 10.9211 13.7337 11.0774 13.5774C11.2337 13.4211 11.4457 13.3333 11.6667 13.3333C11.8877 13.3333 12.0996 13.4211 12.2559 13.5774C12.4122 13.7337 12.5 13.9456 12.5 14.1667V16.6667C12.5033 16.9541 12.582 17.2356 12.7283 17.483C12.8745 17.7304 13.0832 17.9352 13.3333 18.0767V14.1667C13.3333 13.9456 13.4211 13.7337 13.5774 13.5774C13.7337 13.4211 13.9457 13.3333 14.1667 13.3333C14.3877 13.3333 14.5996 13.4211 14.7559 13.5774C14.9122 13.7337 15 13.9456 15 14.1667V18.0767C15.2502 17.9352 15.4588 17.7304 15.6051 17.483C15.7513 17.2356 15.83 16.9541 15.8333 16.6667V14.1667C15.8333 13.9456 15.9211 13.7337 16.0774 13.5774C16.2337 13.4211 16.4457 13.3333 16.6667 13.3333C16.8877 13.3333 17.0996 13.4211 17.2559 13.5774C17.4122 13.7337 17.5 13.9456 17.5 14.1667V16.6667ZM23.2583 23.3783L20.8333 23.985V27.5C20.8333 27.721 20.7455 27.933 20.5893 28.0892C20.433 28.2455 20.221 28.3333 20 28.3333C19.779 28.3333 19.567 28.2455 19.4107 28.0892C19.2545 27.933 19.1667 27.721 19.1667 27.5V14.1667C19.1664 14.0016 19.2151 13.8402 19.3066 13.7029C19.3982 13.5656 19.5284 13.4585 19.6809 13.3954C19.8333 13.3322 20.0011 13.3156 20.163 13.3479C20.3248 13.3802 20.4734 13.4598 20.59 13.5767C21.7276 14.7082 22.6295 16.0542 23.2435 17.5367C23.8574 19.0192 24.1712 20.6087 24.1667 22.2133C24.1672 22.4811 24.078 22.7413 23.9134 22.9524C23.7487 23.1636 23.5181 23.3135 23.2583 23.3783ZM33.3333 30.8333C33.3333 31.4964 33.0699 32.1322 32.6011 32.6011C32.1323 33.0699 31.4964 33.3333 30.8333 33.3333C30.1703 33.3333 29.5344 33.0699 29.0656 32.6011C28.5967 32.1322 28.3333 31.4964 28.3333 30.8333V27.1817L28.7933 27.4117C28.9092 27.4697 29.037 27.5 29.1667 27.5C29.2963 27.5 29.4241 27.4697 29.54 27.4117L30.8333 26.765L32.1267 27.4117C32.2425 27.4697 32.3704 27.5 32.5 27.5C32.6296 27.5 32.7574 27.4697 32.8733 27.4117L33.3333 27.1817V30.8333Z" fill="currentColor"></path>
  </symbol>
  <symbol fill="none" xmlns="http://www.w3.org/2000/svg" viewBox="0 0 40 40" id="icon-dashboard">
    <path d="M8.33334 30.8333C8.33334 33.6967 14.8133 35 20.8333 35C26.8533 35 33.3333 33.6967 33.3333 30.8333C33.3333 28.56 29.3983 27.5333 26.5633 27.09L28.5 25.1667C30.0152 23.6516 31.047 21.7213 31.4651 19.6198C31.8832 17.5183 31.6687 15.3401 30.8488 13.3605C30.0289 11.3809 28.6403 9.68892 26.8588 8.49849C25.0772 7.30807 22.9827 6.67268 20.84 6.67268C18.6973 6.67268 16.6028 7.30807 14.8212 8.49849C13.0397 9.68892 11.6511 11.3809 10.8312 13.3605C10.0113 15.3401 9.79681 17.5183 10.2149 19.6198C10.633 21.7213 11.6648 23.6516 13.18 25.1667L15.11 27.0967C12.2683 27.5333 8.33334 28.56 8.33334 30.8333ZM22.5 13.3333C22.5 13.1786 22.5431 13.0269 22.6245 12.8952C22.7058 12.7636 22.8222 12.6572 22.9607 12.588C23.0991 12.5188 23.254 12.4895 23.4082 12.5034C23.5623 12.5173 23.7095 12.5738 23.8333 12.6667C24.8653 13.4409 25.7222 14.4242 26.348 15.5523C26.9738 16.6805 27.3544 17.928 27.465 19.2133C27.5016 19.6082 27.3952 20.0031 27.1652 20.3261C26.9351 20.6491 26.5968 20.8788 26.2117 20.9733L24.1667 21.485V23.3333C24.1667 23.5543 24.0789 23.7663 23.9226 23.9226C23.7663 24.0789 23.5543 24.1667 23.3333 24.1667C23.1123 24.1667 22.9004 24.0789 22.7441 23.9226C22.5878 23.7663 22.5 23.5543 22.5 23.3333V13.3333ZM15 15V13.3333C15 13.1123 15.0878 12.9004 15.2441 12.7441C15.4004 12.5878 15.6123 12.5 15.8333 12.5C16.0543 12.5 16.2663 12.5878 16.4226 12.7441C16.5789 12.9004 16.6667 13.1123 16.6667 13.3333V15C16.67 15.2874 16.7487 15.5689 16.8949 15.8163C17.0412 16.0638 17.2498 16.2685 17.5 16.41V13.3333C17.5 13.1123 17.5878 12.9004 17.7441 12.7441C17.9004 12.5878 18.1123 12.5 18.3333 12.5C18.5543 12.5 18.7663 12.5878 18.9226 12.7441C19.0789 12.9004 19.1667 13.1123 19.1667 13.3333V16.41C19.4168 16.2685 19.6255 16.0638 19.7717 15.8163C19.918 15.5689 19.9967 15.2874 20 15V13.3333C20 13.1123 20.0878 12.9004 20.2441 12.7441C20.4004 12.5878 20.6123 12.5 20.8333 12.5C21.0543 12.5 21.2663 12.5878 21.4226 12.7441C21.5789 12.9004 21.6667 13.1123 21.6667 13.3333V15C21.6639 15.7368 21.4171 16.452 20.9648 17.0337C20.5124 17.6154 19.8801 18.0308 19.1667 18.215V23.3333C19.1667 23.5543 19.0789 23.7663 18.9226 23.9226C18.7663 24.0789 18.5543 24.1667 18.3333 24.1667C18.1123 24.1667 17.9004 24.0789 17.7441 23.9226C17.5878 23.7663 17.5 23.5543 17.5 23.3333V18.215C16.7865 18.0308 16.1542 17.6154 15.7019 17.0337C15.2496 16.452 15.0028 15.7368 15 15ZM16.59 28.5767L19.065 31.0533C19.2972 31.2856 19.5728 31.4699 19.8763 31.5957C20.1797 31.7214 20.5049 31.7861 20.8333 31.7861C21.1618 31.7861 21.487 31.7214 21.7904 31.5957C22.0938 31.4699 22.3695 31.2856 22.6017 31.0533L25.0767 28.5767C29.6567 29.1067 31.6667 30.3133 31.6667 30.8333C31.6667 31.58 27.9817 33.3333 20.8333 33.3333C13.685 33.3333 10 31.58 10 30.8333C10 30.3133 12.01 29.1067 16.59 28.5767Z" fill="currentColor"></path>
  </symbol>
  <symbol fill="none" xmlns="http://www.w3.org/2000/svg" viewBox="0 0 40 40" id="icon-favorite">
    <path d="M30.8333 10H10.8333C9.72826 10 8.66845 10.439 7.88705 11.2204C7.10565 12.0018 6.66666 13.0616 6.66666 14.1667V27.5C6.66666 28.6051 7.10565 29.6649 7.88705 30.4463C8.66845 31.2277 9.72826 31.6667 10.8333 31.6667H13.3333V33.3883C13.3333 33.6146 13.3948 33.8366 13.511 34.0306C13.6273 34.2247 13.7941 34.3836 13.9935 34.4903C14.193 34.5971 14.4177 34.6477 14.6437 34.6368C14.8696 34.6259 15.0884 34.5538 15.2767 34.4283L19.4183 31.6667H30.8333C31.9384 31.6667 32.9982 31.2277 33.7796 30.4463C34.561 29.6649 35 28.6051 35 27.5V14.1667C35 13.0616 34.561 12.0018 33.7796 11.2204C32.9982 10.439 31.9384 10 30.8333 10ZM21.8333 20.5467L20.3117 22.2717L20.5267 24.565C20.5468 24.7804 20.5107 24.9972 20.422 25.1945C20.3333 25.3918 20.1951 25.5627 20.0206 25.6906C19.8462 25.8185 19.6417 25.8991 19.4269 25.9244C19.2121 25.9497 18.9944 25.9189 18.795 25.835L16.6667 24.915L14.5533 25.8333C14.3543 25.919 14.1365 25.9515 13.9212 25.9278C13.7058 25.904 13.5003 25.8247 13.3248 25.6978C13.1493 25.5708 13.0097 25.4004 12.9198 25.2033C12.8298 25.0062 12.7926 24.7891 12.8117 24.5733L13.0283 22.275L11.5 20.5467C11.3568 20.3834 11.2586 20.1858 11.2149 19.9731C11.1712 19.7604 11.1836 19.54 11.2508 19.3336C11.3181 19.1271 11.4378 18.9417 11.5984 18.7956C11.759 18.6494 11.9548 18.5476 12.1667 18.5L14.415 18L15.5817 16.0167C15.7019 15.8427 15.8625 15.7005 16.0497 15.6023C16.2369 15.5041 16.4452 15.4528 16.6567 15.4528C16.8681 15.4528 17.0764 15.5041 17.2636 15.6023C17.4509 15.7005 17.6115 15.8427 17.7317 16.0167L18.8983 18.0033L21.145 18.5033C21.3577 18.5487 21.555 18.6487 21.7174 18.7935C21.8798 18.9383 22.0017 19.1228 22.0711 19.3289C22.1406 19.5351 22.1552 19.7558 22.1135 19.9693C22.0718 20.1828 21.9752 20.3818 21.8333 20.5467ZM27.5 25H24.1667C23.9456 25 23.7337 24.9122 23.5774 24.7559C23.4211 24.5996 23.3333 24.3877 23.3333 24.1667C23.3333 23.9457 23.4211 23.7337 23.5774 23.5774C23.7337 23.4211 23.9456 23.3333 24.1667 23.3333H27.5C27.721 23.3333 27.933 23.4211 28.0893 23.5774C28.2455 23.7337 28.3333 23.9457 28.3333 24.1667C28.3333 24.3877 28.2455 24.5996 28.0893 24.7559C27.933 24.9122 27.721 25 27.5 25ZM30 21.6667H24.1667C23.9456 21.6667 23.7337 21.5789 23.5774 21.4226C23.4211 21.2663 23.3333 21.0543 23.3333 20.8333C23.3333 20.6123 23.4211 20.4004 23.5774 20.2441C23.7337 20.0878 23.9456 20 24.1667 20H30C30.221 20 30.433 20.0878 30.5893 20.2441C30.7455 20.4004 30.8333 20.6123 30.8333 20.8333C30.8333 21.0543 30.7455 21.2663 30.5893 21.4226C30.433 21.5789 30.221 21.6667 30 21.6667ZM30 18.3333H24.1667C23.9456 18.3333 23.7337 18.2455 23.5774 18.0893C23.4211 17.933 23.3333 17.721 23.3333 17.5C23.3333 17.279 23.4211 17.067 23.5774 16.9107C23.7337 16.7545 23.9456 16.6667 24.1667 16.6667H30C30.221 16.6667 30.433 16.7545 30.5893 16.9107C30.7455 17.067 30.8333 17.279 30.8333 17.5C30.8333 17.721 30.7455 17.933 30.5893 18.0893C30.433 18.2455 30.221 18.3333 30 18.3333Z" fill="currentColor"></path>
  </symbol>
  <symbol fill="none" xmlns="http://www.w3.org/2000/svg" viewBox="0 0 40 40" id="icon-foodorder">
    <path d="M6.66666 29.1667C6.66666 29.8297 6.93006 30.4656 7.3989 30.9344C7.86774 31.4033 8.50362 31.6667 9.16666 31.6667H10.085C10.2763 32.6086 10.7873 33.4554 11.5314 34.0637C12.2756 34.6719 13.2072 35.0042 14.1683 35.0042C15.1295 35.0042 16.061 34.6719 16.8052 34.0637C17.5494 33.4554 18.0604 32.6086 18.2517 31.6667H23.5C24.6309 31.6588 25.7349 31.3211 26.6767 30.695C26.6767 30.7417 26.6633 30.7867 26.6633 30.8333C26.6627 31.7299 26.9514 32.6028 27.4864 33.3223C28.0214 34.0418 28.7742 34.5695 29.6329 34.8271C30.4917 35.0846 31.4107 35.0583 32.2534 34.7521C33.096 34.4458 33.8174 33.8759 34.3104 33.127C34.8033 32.378 35.0415 31.4901 34.9897 30.595C34.9378 29.6999 34.5986 28.8455 34.0225 28.1585C33.4463 27.4715 32.6639 26.9888 31.7915 26.7818C30.9191 26.5749 30.0033 26.655 29.18 27.01C29.3206 26.387 29.3566 25.7449 29.2867 25.11L28.6417 19.9433C28.8141 19.9811 28.9901 20.0001 29.1667 20H30C30.442 20 30.8659 19.8244 31.1785 19.5118C31.4911 19.1993 31.6667 18.7754 31.6667 18.3333V16.6667C31.6667 16.2246 31.4911 15.8007 31.1785 15.4882C30.8659 15.1756 30.442 15 30 15H29.1667C28.7805 15.0018 28.4 15.093 28.0551 15.2665C27.7101 15.44 27.41 15.6911 27.1783 16L26.91 15.7317C26.4402 15.265 25.8055 15.0021 25.1433 15H24.1667C23.9457 15 23.7337 15.0878 23.5774 15.2441C23.4211 15.4004 23.3333 15.6123 23.3333 15.8333C23.3333 16.0544 23.4211 16.2663 23.5774 16.4226C23.7337 16.5789 23.9457 16.6667 24.1667 16.6667H25.1433C25.3639 16.6667 25.5755 16.7542 25.7317 16.91L26.705 17.8833C26.73 18.0383 27.3283 22.8467 27.6367 25.3167C27.7099 25.9031 27.6576 26.4984 27.4832 27.063C27.3088 27.6277 27.0163 28.1488 26.6251 28.5917C26.2338 29.0346 25.7528 29.3893 25.214 29.6321C24.6753 29.8749 24.091 30.0003 23.5 30H23.1833L21.6667 22.4183V20.8333C21.6667 20.1703 21.4033 19.5344 20.9344 19.0656C20.4656 18.5967 19.8297 18.3333 19.1667 18.3333H15.8333V14.1667C15.8333 13.5036 15.5699 12.8677 15.1011 12.3989C14.6323 11.9301 13.9964 11.6667 13.3333 11.6667H9.16666C8.50362 11.6667 7.86774 11.9301 7.3989 12.3989C6.93006 12.8677 6.66666 13.5036 6.66666 14.1667V20.8333C6.66666 21.4964 6.93006 22.1323 7.3989 22.6011C7.86774 23.0699 8.50362 23.3333 9.16666 23.3333H9.51C8.62733 24.0287 7.91316 24.9145 7.42081 25.9246C6.92846 26.9347 6.67067 28.043 6.66666 29.1667ZM30.8333 28.3333C31.3278 28.3333 31.8111 28.48 32.2223 28.7547C32.6334 29.0294 32.9538 29.4198 33.143 29.8766C33.3322 30.3334 33.3818 30.8361 33.2853 31.3211C33.1888 31.806 32.9507 32.2515 32.6011 32.6011C32.2515 32.9507 31.806 33.1888 31.3211 33.2853C30.8361 33.3818 30.3334 33.3323 29.8766 33.143C29.4198 32.9538 29.0294 32.6334 28.7547 32.2223C28.48 31.8111 28.3333 31.3278 28.3333 30.8333C28.3333 30.1703 28.5967 29.5344 29.0656 29.0656C29.5344 28.5967 30.1703 28.3333 30.8333 28.3333ZM15.8333 20H19.1667C19.3877 20 19.5996 20.0878 19.7559 20.2441C19.9122 20.4004 20 20.6123 20 20.8333V21.6667H15.8333V20ZM16.5133 31.6667C16.3436 32.1538 16.0265 32.576 15.606 32.8748C15.1856 33.1736 14.6825 33.3341 14.1667 33.3341C13.6508 33.3341 13.1478 33.1736 12.7273 32.8748C12.3068 32.576 11.9897 32.1538 11.82 31.6667H16.5133ZM8.33333 14.1667C8.33333 13.9457 8.42113 13.7337 8.57741 13.5774C8.73369 13.4211 8.94565 13.3333 9.16666 13.3333H13.3333C13.5543 13.3333 13.7663 13.4211 13.9226 13.5774C14.0789 13.7337 14.1667 13.9457 14.1667 14.1667V15H8.33333V14.1667ZM8.33333 16.6667H14.1667V18.3083H8.33333V16.6667ZM9.16666 21.6667C8.94565 21.6667 8.73369 21.5789 8.57741 21.4226C8.42113 21.2663 8.33333 21.0544 8.33333 20.8333V19.975H14.1667V21.6667H9.16666Z" fill="currentColor"></path>
  </symbol>
  <symbol fill="none" xmlns="http://www.w3.org/2000/svg" viewBox="0 0 40 40" id="icon-message">
    <path d="M32.5 16.6667H31.6667V12.5C31.6667 11.837 31.4033 11.2011 30.9344 10.7322C30.4656 10.2634 29.8297 10 29.1667 10H9.16666C8.50362 10 7.86774 10.2634 7.3989 10.7322C6.93006 11.2011 6.66666 11.837 6.66666 12.5V25.8333C6.66666 26.4964 6.93006 27.1323 7.3989 27.6011C7.86774 28.0699 8.50362 28.3333 9.16666 28.3333H10V29.8333C10.0007 30.0802 10.0743 30.3213 10.2117 30.5264C10.3491 30.7315 10.544 30.8914 10.772 30.986C11.0001 31.0806 11.251 31.1057 11.4932 31.058C11.7354 31.0104 11.9581 30.8922 12.1333 30.7183L14.5117 28.3333H16.6667V29.1667C16.6667 29.8297 16.9301 30.4656 17.3989 30.9344C17.8677 31.4033 18.5036 31.6667 19.1667 31.6667H27.155L29.5333 34.045C29.7078 34.2193 29.93 34.3381 30.1719 34.3864C30.4137 34.4347 30.6645 34.4103 30.8926 34.3164C31.1206 34.2225 31.3158 34.0633 31.4536 33.8587C31.5913 33.6541 31.6655 33.4133 31.6667 33.1667V31.6667H32.5C33.163 31.6667 33.7989 31.4033 34.2678 30.9344C34.7366 30.4656 35 29.8297 35 29.1667V19.1667C35 18.5036 34.7366 17.8677 34.2678 17.3989C33.7989 16.9301 33.163 16.6667 32.5 16.6667ZM30 25.8333C30 26.0543 29.9122 26.2663 29.7559 26.4226C29.5996 26.5789 29.3877 26.6667 29.1667 26.6667H14.1667C14.0572 26.6665 13.9487 26.6879 13.8474 26.7296C13.7462 26.7714 13.6542 26.8327 13.5767 26.91L11.6667 28.8217V27.5C11.6667 27.279 11.5789 27.067 11.4226 26.9107C11.2663 26.7545 11.0543 26.6667 10.8333 26.6667H9.16666C8.94565 26.6667 8.73369 26.5789 8.57741 26.4226C8.42113 26.2663 8.33333 26.0543 8.33333 25.8333V12.5C8.33333 12.279 8.42113 12.067 8.57741 11.9107C8.73369 11.7545 8.94565 11.6667 9.16666 11.6667H29.1667C29.3877 11.6667 29.5996 11.7545 29.7559 11.9107C29.9122 12.067 30 12.279 30 12.5V25.8333Z" fill="currentColor"></path>
    <path d="M18.3333 14.1667C18.1123 14.1667 17.9004 14.2545 17.7441 14.4107C17.5878 14.567 17.5 14.779 17.5 15V16.6667C17.4964 16.954 17.4175 17.2354 17.2713 17.4827C17.1251 17.7301 16.9166 17.9349 16.6667 18.0767V15C16.6667 14.779 16.5789 14.567 16.4226 14.4107C16.2663 14.2545 16.0543 14.1667 15.8333 14.1667C15.6123 14.1667 15.4004 14.2545 15.2441 14.4107C15.0878 14.567 15 14.779 15 15V18.0767C14.75 17.9349 14.5416 17.7301 14.3954 17.4827C14.2492 17.2354 14.1703 16.954 14.1667 16.6667V15C14.1667 14.779 14.0789 14.567 13.9226 14.4107C13.7663 14.2545 13.5543 14.1667 13.3333 14.1667C13.1123 14.1667 12.9004 14.2545 12.7441 14.4107C12.5878 14.567 12.5 14.779 12.5 15V16.6667C12.5028 17.4035 12.7496 18.1187 13.2019 18.7004C13.6542 19.282 14.2865 19.6974 15 19.8817V23.3333C15 23.5543 15.0878 23.7663 15.2441 23.9226C15.4004 24.0789 15.6123 24.1667 15.8333 24.1667C16.0543 24.1667 16.2663 24.0789 16.4226 23.9226C16.5789 23.7663 16.6667 23.5543 16.6667 23.3333V19.8817C17.3801 19.6974 18.0124 19.282 18.4648 18.7004C18.9171 18.1187 19.1639 17.4035 19.1667 16.6667V15C19.1667 14.779 19.0789 14.567 18.9226 14.4107C18.7663 14.2545 18.5543 14.1667 18.3333 14.1667ZM22.04 14.255C21.913 14.1913 21.7717 14.1612 21.6298 14.1675C21.4878 14.1738 21.3498 14.2163 21.2289 14.2909C21.108 14.3656 21.0081 14.4699 20.9389 14.594C20.8697 14.7181 20.8333 14.8579 20.8333 15V23.3333C20.8333 23.5543 20.9211 23.7663 21.0774 23.9226C21.2337 24.0789 21.4457 24.1667 21.6667 24.1667C21.8877 24.1667 22.0996 24.0789 22.2559 23.9226C22.4122 23.7663 22.5 23.5543 22.5 23.3333V22.3183L24.8867 21.72C25.1746 21.6419 25.4264 21.4663 25.5991 21.2231C25.7717 20.9798 25.8545 20.6842 25.8333 20.3867C25.8355 19.1126 25.4815 17.8633 24.8112 16.7798C24.1409 15.6963 23.181 14.8218 22.04 14.255Z" fill="currentColor"></path>
  </symbol>
  <symbol fill="none" xmlns="http://www.w3.org/2000/svg" viewBox="0 0 40 40" id="icon-orderhistory">
    <path d="M20 10.8333V20.4883L13.5767 26.91C13.4202 27.0665 13.3323 27.2787 13.3323 27.5C13.3323 27.7213 13.4202 27.9335 13.5767 28.09C13.7332 28.2465 13.9454 28.3344 14.1667 28.3344C14.388 28.3344 14.6002 28.2465 14.7567 28.09L21.4233 21.4233C21.5007 21.3458 21.562 21.2538 21.6037 21.1526C21.6455 21.0513 21.6669 20.9428 21.6667 20.8333V10.8333C21.6667 10.6123 21.5789 10.4004 21.4226 10.2441C21.2663 10.0878 21.0544 10 20.8333 10C20.6123 10 20.4004 10.0878 20.2441 10.2441C20.0878 10.4004 20 10.6123 20 10.8333ZM34.1667 26.6667H24.1667C23.9457 26.6667 23.7337 26.7545 23.5774 26.9107C23.4211 27.067 23.3333 27.279 23.3333 27.5C23.3333 27.721 23.4211 27.933 23.5774 28.0893C23.7337 28.2455 23.9457 28.3333 24.1667 28.3333H34.1667C34.3877 28.3333 34.5996 28.2455 34.7559 28.0893C34.9122 27.933 35 27.721 35 27.5C35 27.279 34.9122 27.067 34.7559 26.9107C34.5996 26.7545 34.3877 26.6667 34.1667 26.6667Z" fill="currentColor"></path>
    <path d="M32.5 10C32.279 10 32.067 10.0878 31.9107 10.2441C31.7545 10.4004 31.6667 10.6123 31.6667 10.8333V11.7467C30.3476 10.1531 28.6921 8.87122 26.8191 7.99294C24.9462 7.11465 22.902 6.66173 20.8333 6.66667C18.5036 6.66672 16.2098 7.24134 14.1552 8.33963C12.1006 9.43792 10.3485 11.026 9.05423 12.9631C7.75995 14.9003 6.9634 17.1268 6.73513 19.4453C6.50687 21.7638 6.85394 24.1029 7.74559 26.2553C8.63724 28.4076 10.046 30.3069 11.847 31.7848C13.648 33.2627 15.7856 34.2736 18.0706 34.728C20.3557 35.1823 22.7175 35.0662 24.9468 34.3897C27.1762 33.7133 29.2044 32.4975 30.8517 30.85C31.0086 30.6929 31.0967 30.4798 31.0965 30.2577C31.0963 30.0357 31.008 29.8228 30.8508 29.6658C30.6937 29.5089 30.4806 29.4208 30.2586 29.421C30.0365 29.4212 29.8236 29.5095 29.6667 29.6667C27.8666 31.4703 25.5583 32.6807 23.051 33.1357C20.5438 33.5907 17.9574 33.2685 15.6383 32.2124C13.3193 31.1563 11.3784 29.4166 10.0758 27.2265C8.77317 25.0364 8.17099 22.5006 8.34997 19.9586C8.52894 17.4167 9.4805 14.9902 11.0772 13.0043C12.6738 11.0183 14.8393 9.56779 17.2834 8.84703C19.7276 8.12627 22.3336 8.16971 24.7524 8.97153C27.1712 9.77336 29.2871 11.2953 30.8167 13.3333H29.1667C28.9457 13.3333 28.7337 13.4211 28.5774 13.5774C28.4211 13.7337 28.3333 13.9457 28.3333 14.1667C28.3333 14.3877 28.4211 14.5996 28.5774 14.7559C28.7337 14.9122 28.9457 15 29.1667 15H32.5C32.721 15 32.933 14.9122 33.0893 14.7559C33.2455 14.5996 33.3333 14.3877 33.3333 14.1667V10.8333C33.3333 10.6123 33.2455 10.4004 33.0893 10.2441C32.933 10.0878 32.721 10 32.5 10Z" fill="currentColor"></path>
    <path d="M29.1666 16.6667C28.9456 16.6667 28.7337 16.7545 28.5774 16.9107C28.4211 17.067 28.3333 17.279 28.3333 17.5V18.4067C27.1462 18.5787 26.0408 19.1117 25.1669 19.9334C24.293 20.7551 23.693 21.8257 23.4483 23C23.3988 23.2424 23.4039 23.4929 23.4633 23.7331C23.5227 23.9733 23.6348 24.1973 23.7915 24.3888C23.9482 24.5803 24.1456 24.7346 24.3693 24.8403C24.5931 24.946 24.8375 25.0005 25.085 25H33.2517C33.4991 25.0005 33.7436 24.946 33.9673 24.8403C34.1911 24.7346 34.3884 24.5803 34.5452 24.3888C34.7019 24.1973 34.814 23.9733 34.8733 23.7331C34.9327 23.4929 34.9378 23.2424 34.8883 23C34.6434 21.8252 34.0429 20.7543 33.1684 19.9326C32.2939 19.1108 31.1877 18.5781 30 18.4067V17.5C30 17.279 29.9122 17.067 29.7559 16.9107C29.5996 16.7545 29.3877 16.6667 29.1666 16.6667Z" fill="currentColor"></path>
  </symbol>
  <symbol fill="none" xmlns="http://www.w3.org/2000/svg" viewBox="0 0 40 40" id="icon-setting">
    <path d="M24.6437 26.3562L24.5687 23.7C25.1312 23.5937 25.9187 22.6437 26.2375 22.1375L25.1625 19.725C24.5687 19.6313 23.3375 19.575 22.8812 19.925L20.9562 18.0938C21.275 17.625 21.1625 16.4 21.025 15.8188L18.5562 14.875C18.075 15.2187 17.1687 16.0563 17.0937 16.625L14.4375 16.6937C14.3312 16.1312 13.375 15.3562 12.875 15.0312L10.4625 16.1062C10.3687 16.7 10.3125 17.9313 10.6625 18.3875L8.8375 20.3125C8.3625 19.9937 7.1375 20.1125 6.55625 20.2437L5.6125 22.7063C5.95625 23.2 6.79375 24.0938 7.35625 24.175L7.43125 26.8312C6.875 26.9438 6.09375 27.8875 5.76875 28.3937L6.85 30.8062C7.4375 30.9 8.66875 30.95 9.125 30.6125L11.05 32.4312C10.7312 32.9 10.85 34.1313 10.9812 34.7125L13.4437 35.6562C13.9312 35.3062 14.8375 34.4688 14.9125 33.9062L17.5687 33.8312C17.6812 34.4 18.625 35.175 19.1375 35.4937L21.5437 34.425C21.6437 33.825 21.6875 32.6 21.35 32.1437L23.1687 30.2125C23.6437 30.5375 24.8687 30.4187 25.4562 30.2875L26.3937 27.8187C26.0437 27.3375 25.2125 26.4375 24.6437 26.3562ZM18.8187 26.3375C18.6061 26.895 18.233 27.3769 17.7465 27.7224C17.2599 28.0678 16.6819 28.2612 16.0855 28.2781C15.4891 28.295 14.901 28.1347 14.3957 27.8174C13.8904 27.5001 13.4905 27.0401 13.2466 26.4955C13.0028 25.951 12.9258 25.3463 13.0256 24.7581C13.1254 24.1698 13.3974 23.6243 13.8071 23.1906C14.2169 22.7569 14.7461 22.4545 15.3278 22.3215C15.9095 22.1886 16.5175 22.2311 17.075 22.4437C17.4455 22.5844 17.7846 22.7969 18.0729 23.0689C18.3612 23.3408 18.5929 23.667 18.7549 24.0288C18.9169 24.3905 19.0059 24.7806 19.0169 25.1768C19.0278 25.5729 18.9605 25.9674 18.8187 26.3375ZM34.375 9.1625C34.0812 8.91875 33.3875 8.4875 33.0437 8.6L31.9875 6.8C32.25 6.55625 32.2125 5.7375 32.1437 5.36875L30.3375 4.34375C29.9812 4.475 29.2625 4.8625 29.1875 5.2125L27.1 5.23125C27.0187 4.88125 26.2937 4.50625 25.9375 4.375L24.15 5.43125C24.0875 5.8 24.0625 6.61875 24.325 6.8625L23.3 8.675C22.95 8.56875 22.2625 9.0125 21.975 9.25625L21.9937 11.3312C22.2875 11.575 22.9812 12 23.325 11.8938L24.3812 13.6938C24.1187 13.9375 24.1562 14.7563 24.225 15.125L26.0312 16.15C26.3812 16.0187 27.1 15.6313 27.1812 15.2812L29.2625 15.2625C29.35 15.6125 30.075 15.9875 30.4312 16.1187L32.2187 15.0625C32.2812 14.6875 32.3062 13.875 32.0375 13.6312L33.0687 11.8187C33.4125 11.9187 34.1 11.4812 34.3875 11.2375L34.375 9.1625ZM28.1812 11.8813C27.8583 11.8806 27.5427 11.7843 27.2744 11.6045C27.0061 11.4247 26.7971 11.1694 26.6738 10.8709C26.5505 10.5724 26.5184 10.244 26.5816 9.92726C26.6447 9.61051 26.8003 9.31958 27.0287 9.0912C27.2571 8.86282 27.548 8.70722 27.8648 8.64406C28.1815 8.5809 28.5099 8.613 28.8084 8.73631C29.1069 8.85963 29.3622 9.06863 29.542 9.33692C29.7218 9.60521 29.8181 9.92077 29.8187 10.2437C29.8192 10.4589 29.7772 10.6721 29.6951 10.871C29.613 11.0699 29.4924 11.2506 29.3402 11.4027C29.1881 11.5549 29.0074 11.6755 28.8085 11.7576C28.6096 11.8397 28.3964 11.8817 28.1812 11.8813Z" fill="currentColor"></path>
  </symbol>
  <symbol fill="none" xmlns="http://www.w3.org/2000/svg" viewBox="0 0 24 24" id="icon-location">
    <path d="M20.46 9.63C20.3196 8.16892 19.8032 6.76909 18.9612 5.56682C18.1191 4.36456 16.9801 3.40083 15.655 2.7695C14.3299 2.13816 12.8639 1.86072 11.3997 1.96421C9.93555 2.06769 8.52314 2.54856 7.3 3.36C6.2492 4.06265 5.36706 4.9893 4.71695 6.07339C4.06684 7.15749 3.6649 8.37211 3.54 9.63C3.41749 10.8797 3.57468 12.1409 4.00017 13.3223C4.42567 14.5036 5.1088 15.5755 6 16.46L11.3 21.77C11.393 21.8637 11.5036 21.9381 11.6254 21.9889C11.7473 22.0397 11.878 22.0658 12.01 22.0658C12.142 22.0658 12.2727 22.0397 12.3946 21.9889C12.5164 21.9381 12.627 21.8637 12.72 21.77L18 16.46C18.8912 15.5755 19.5743 14.5036 19.9998 13.3223C20.4253 12.1409 20.5825 10.8797 20.46 9.63ZM16.6 15.05L12 19.65L7.4 15.05C6.72209 14.3721 6.20281 13.5523 5.87947 12.6498C5.55614 11.7472 5.43679 10.7842 5.53 9.83C5.62382 8.86111 5.93177 7.92516 6.43157 7.08985C6.93138 6.25453 7.61056 5.54071 8.42 5C9.48095 4.29524 10.7263 3.9193 12 3.9193C13.2737 3.9193 14.5191 4.29524 15.58 5C16.387 5.53862 17.0647 6.24928 17.5644 7.08094C18.064 7.9126 18.3733 8.84461 18.47 9.81C18.5663 10.7674 18.4484 11.7343 18.125 12.6406C17.8016 13.5468 17.2807 14.3698 16.6 15.05ZM12 6C11.11 6 10.24 6.26392 9.49994 6.75839C8.75992 7.25286 8.18314 7.95566 7.84255 8.77793C7.50195 9.6002 7.41284 10.505 7.58647 11.3779C7.7601 12.2508 8.18869 13.0526 8.81802 13.682C9.44736 14.3113 10.2492 14.7399 11.1221 14.9135C11.995 15.0872 12.8998 14.9981 13.7221 14.6575C14.5443 14.3169 15.2471 13.7401 15.7416 13.0001C16.2361 12.26 16.5 11.39 16.5 10.5C16.4974 9.30734 16.0224 8.16428 15.1791 7.32094C14.3357 6.4776 13.1927 6.00265 12 6ZM12 13C11.5055 13 11.0222 12.8534 10.6111 12.5787C10.2 12.304 9.87952 11.9135 9.6903 11.4567C9.50109 10.9999 9.45158 10.4972 9.54804 10.0123C9.6445 9.52733 9.88261 9.08187 10.2322 8.73224C10.5819 8.38261 11.0273 8.1445 11.5123 8.04804C11.9972 7.95158 12.4999 8.00109 12.9567 8.1903C13.4135 8.37952 13.804 8.69996 14.0787 9.11108C14.3534 9.5222 14.5 10.0056 14.5 10.5C14.5 11.163 14.2366 11.7989 13.7678 12.2678C13.2989 12.7366 12.663 13 12 13Z" fill="CurrentColor"/>
  </symbol>
  <symbol fill="none" xmlns="http://www.w3.org/2000/svg" viewBox="0 0 32 32" id="icon-income">
    <path d="M9 30H23C24.3261 30 25.5979 29.4732 26.5355 28.5355C27.4732 27.5979 28 26.3261 28 25V19C28 17.6739 27.4732 16.4021 26.5355 15.4645C25.5979 14.5268 24.3261 14 23 14H9C7.67392 14 6.40215 14.5268 5.46447 15.4645C4.52678 16.4021 4 17.6739 4 19V25C4 26.3261 4.52678 27.5979 5.46447 28.5355C6.40215 29.4732 7.67392 30 9 30ZM6 19C6 18.2044 6.31607 17.4413 6.87868 16.8787C7.44129 16.3161 8.20435 16 9 16H23C23.7956 16 24.5587 16.3161 25.1213 16.8787C25.6839 17.4413 26 18.2044 26 19V25C26 25.7956 25.6839 26.5587 25.1213 27.1213C24.5587 27.6839 23.7956 28 23 28H9C8.20435 28 7.44129 27.6839 6.87868 27.1213C6.31607 26.5587 6 25.7956 6 25V19Z" fill="currentColor"/>
    <path d="M16 26C16.7912 26 17.5645 25.7654 18.2223 25.3259C18.8801 24.8864 19.3928 24.2616 19.6955 23.5307C19.9983 22.7998 20.0775 21.9956 19.9232 21.2196C19.7688 20.4437 19.3879 19.731 18.8285 19.1716C18.269 18.6122 17.5563 18.2312 16.7804 18.0769C16.0045 17.9225 15.2002 18.0017 14.4693 18.3045C13.7384 18.6072 13.1137 19.1199 12.6741 19.7777C12.2346 20.4355 12 21.2089 12 22C12 23.0609 12.4215 24.0783 13.1716 24.8284C13.9217 25.5786 14.9392 26 16 26ZM16 20C16.3956 20 16.7823 20.1173 17.1112 20.3371C17.4401 20.5568 17.6964 20.8692 17.8478 21.2346C17.9992 21.6001 18.0388 22.0022 17.9616 22.3902C17.8844 22.7781 17.6939 23.1345 17.4142 23.4142C17.1345 23.6939 16.7782 23.8844 16.3902 23.9616C16.0022 24.0387 15.6001 23.9991 15.2347 23.8478C14.8692 23.6964 14.5569 23.44 14.3371 23.1111C14.1173 22.7822 14 22.3956 14 22C14 21.4696 14.2107 20.9609 14.5858 20.5858C14.9609 20.2107 15.4696 20 16 20ZM16 2C15.7348 2 15.4805 2.10536 15.2929 2.29289C15.1054 2.48043 15 2.73478 15 3V8.59L12.46 6.05C12.2687 5.88617 12.0227 5.80057 11.771 5.81029C11.5193 5.82001 11.2806 5.92434 11.1025 6.10244C10.9244 6.28053 10.82 6.51927 10.8103 6.77095C10.8006 7.02262 10.8862 7.2687 11.05 7.46L15.29 11.71C15.3822 11.8 15.4908 11.8713 15.61 11.92C15.7334 11.9723 15.866 11.9992 16 11.9992C16.134 11.9992 16.2666 11.9723 16.39 11.92C16.5092 11.8713 16.6179 11.8 16.71 11.71L21 7.46C21.1639 7.2687 21.2495 7.02262 21.2397 6.77095C21.23 6.51927 21.1257 6.28053 20.9476 6.10244C20.7695 5.92434 20.5308 5.82001 20.2791 5.81029C20.0274 5.80057 19.7813 5.88617 19.59 6.05L17 8.59V3C17 2.73478 16.8947 2.48043 16.7071 2.29289C16.5196 2.10536 16.2652 2 16 2Z" fill="currentColor"/>
  </symbol>
  <symbol fill="none" xmlns="http://www.w3.org/2000/svg" viewBox="0 0 32 32" id="icon-profit">
    <path d="M4 19V25C4 26.3261 4.52678 27.5979 5.46447 28.5355C6.40215 29.4732 7.67392 30 9 30H23C24.3261 30 25.5979 29.4732 26.5355 28.5355C27.4732 27.5979 28 26.3261 28 25V19C28 17.6739 27.4732 16.4021 26.5355 15.4645C25.5979 14.5268 24.3261 14 23 14H9C7.67392 14 6.40215 14.5268 5.46447 15.4645C4.52678 16.4021 4 17.6739 4 19ZM26 19V25C26 25.7956 25.6839 26.5587 25.1213 27.1213C24.5587 27.6839 23.7956 28 23 28H9C8.20435 28 7.44129 27.6839 6.87868 27.1213C6.31607 26.5587 6 25.7956 6 25V19C6 18.2044 6.31607 17.4413 6.87868 16.8787C7.44129 16.3161 8.20435 16 9 16H23C23.7956 16 24.5587 16.3161 25.1213 16.8787C25.6839 17.4413 26 18.2044 26 19Z" fill="currentColor"/>
    <path d="M16 26C16.7911 26 17.5644 25.7654 18.2222 25.3259C18.88 24.8864 19.3927 24.2616 19.6955 23.5307C19.9982 22.7998 20.0774 21.9956 19.9231 21.2196C19.7688 20.4437 19.3878 19.731 18.8284 19.1716C18.269 18.6122 17.5562 18.2312 16.7803 18.0769C16.0044 17.9225 15.2001 18.0017 14.4692 18.3045C13.7383 18.6072 13.1136 19.1199 12.6741 19.7777C12.2346 20.4355 12 21.2089 12 22C12 23.0609 12.4214 24.0783 13.1715 24.8284C13.9217 25.5786 14.9391 26 16 26ZM16 20C16.3955 20 16.7822 20.1173 17.1111 20.3371C17.44 20.5568 17.6963 20.8692 17.8477 21.2346C17.9991 21.6001 18.0387 22.0022 17.9615 22.3902C17.8844 22.7781 17.6939 23.1345 17.4142 23.4142C17.1345 23.6939 16.7781 23.8844 16.3901 23.9616C16.0022 24.0387 15.6 23.9991 15.2346 23.8478C14.8691 23.6964 14.5568 23.44 14.337 23.1111C14.1173 22.7822 14 22.3956 14 22C14 21.4696 14.2107 20.9609 14.5858 20.5858C14.9608 20.2107 15.4695 20 16 20ZM16.71 2.29C16.617 2.19627 16.5064 2.12188 16.3845 2.07111C16.2627 2.02034 16.132 1.9942 16 1.9942C15.868 1.9942 15.7372 2.02034 15.6154 2.07111C15.4935 2.12188 15.3829 2.19627 15.29 2.29L11.05 6.54C10.8564 6.72698 10.745 6.98321 10.7403 7.25232C10.7356 7.52144 10.838 7.78139 11.025 7.975C11.2119 8.16861 11.4682 8.28001 11.7373 8.2847C12.0064 8.28939 12.2664 8.18698 12.46 8L15 5.41V11C15 11.2652 15.1053 11.5196 15.2929 11.7071C15.4804 11.8946 15.7347 12 16 12C16.2652 12 16.5195 11.8946 16.7071 11.7071C16.8946 11.5196 17 11.2652 17 11V5.41L19.54 8C19.7262 8.18474 19.9776 8.2889 20.24 8.29C20.3799 8.29761 20.5199 8.27573 20.6508 8.22577C20.7817 8.17581 20.9007 8.09889 21 8C21.1862 7.81264 21.2908 7.55919 21.2908 7.295C21.2908 7.03081 21.1862 6.77736 21 6.59L16.71 2.29Z" fill="currentColor"/>
  </symbol>
  <symbol fill="none" xmlns="http://www.w3.org/2000/svg" viewBox="0 0 40 40" id="icon-notification">
    <path d="M30.55 22.9625C30.3745 22.8539 30.231 22.7006 30.1344 22.5183C30.0377 22.336 29.9913 22.1312 30 21.925V17.8625C30.0077 15.824 29.4205 13.8276 28.3104 12.1179C27.2002 10.4083 25.6153 9.05969 23.75 8.2375C23.6136 7.35237 23.1649 6.54527 22.4851 5.96222C21.8053 5.37916 20.9393 5.05865 20.0437 5.05865C19.1482 5.05865 18.2821 5.37916 17.6024 5.96222C16.9226 6.54527 16.4739 7.35237 16.3375 8.2375C15.1223 8.72151 14.0139 9.43923 13.075 10.35C12.106 11.2722 11.3339 12.3812 10.8054 13.6101C10.2769 14.839 10.0029 16.1623 9.99998 17.5V21.925C10.0086 22.1312 9.96227 22.336 9.86561 22.5183C9.76895 22.7006 9.6255 22.8539 9.44998 22.9625C8.75669 23.3289 8.1957 23.9034 7.84591 24.6052C7.49612 25.307 7.37514 26.1008 7.49998 26.875C7.67404 27.7713 8.16003 28.577 8.87169 29.1491C9.58335 29.7212 10.4747 30.0227 11.3875 30H15C15 31.3261 15.5268 32.5978 16.4644 33.5355C17.4021 34.4732 18.6739 35 20 35C21.3261 35 22.5978 34.4732 23.5355 33.5355C24.4732 32.5978 25 31.3261 25 30H28.6125C29.5253 30.0227 30.4166 29.7212 31.1283 29.1491C31.8399 28.577 32.3259 27.7713 32.5 26.875C32.6248 26.1008 32.5038 25.307 32.1541 24.6052C31.8043 23.9034 31.2433 23.3289 30.55 22.9625ZM20 32.5C19.3369 32.5 18.7011 32.2366 18.2322 31.7678C17.7634 31.2989 17.5 30.663 17.5 30H22.5C22.5 30.663 22.2366 31.2989 21.7677 31.7678C21.2989 32.2366 20.663 32.5 20 32.5ZM28.6125 27.5H11.3875C11.0735 27.5155 10.7637 27.4219 10.5109 27.235C10.258 27.0482 10.0775 26.7797 9.99998 26.475C9.9526 26.2151 9.98877 25.9469 10.1033 25.7089C10.2178 25.4708 10.4048 25.2752 10.6375 25.15C11.208 24.8281 11.6817 24.3591 12.0092 23.7919C12.3368 23.2247 12.5063 22.58 12.5 21.925V17.5C12.499 16.4954 12.6999 15.5008 13.0907 14.5754C13.4815 13.6499 14.0543 12.8124 14.775 12.1125C15.3669 11.5333 16.0567 11.0636 16.8125 10.725C17.8067 10.2459 18.8964 9.99804 20 10H20.2375C21.2592 10.0356 22.2612 10.2914 23.175 10.75C24.4819 11.4211 25.5776 12.4408 26.3409 13.6961C27.1043 14.9514 27.5054 16.3934 27.5 17.8625V21.925C27.4924 22.5787 27.66 23.2226 27.9853 23.7897C28.3107 24.3568 28.7818 24.8265 29.35 25.15C29.5826 25.2726 29.7706 25.4654 29.8873 25.7011C30.004 25.9367 30.0435 26.2032 30 26.4625C29.9249 26.7695 29.7455 27.0409 29.4924 27.2302C29.2393 27.4195 28.9282 27.5148 28.6125 27.5Z" fill="currentColor"/>
  </symbol>
  <symbol fill="none" xmlns="http://www.w3.org/2000/svg" viewBox="0 0 32 32" id="icon-coupon">
    <path d="M27.4334 10.6267C27.049 10.5483 26.6962 10.3586 26.4188 10.0812C26.1414 9.80384 25.9518 9.45102 25.8734 9.06667C25.8119 8.7655 25.6483 8.49483 25.4101 8.30045C25.172 8.10608 24.8741 7.99994 24.5667 8H12.5V9.33333C12.5 9.51014 12.4298 9.67971 12.3048 9.80474C12.1798 9.92976 12.0102 10 11.8334 10C11.6566 10 11.487 9.92976 11.362 9.80474C11.2369 9.67971 11.1667 9.51014 11.1667 9.33333V8H9.76671C9.45933 7.99994 9.16138 8.10608 8.92327 8.30045C8.68516 8.49483 8.52152 8.7655 8.46004 9.06667C8.38165 9.45102 8.19197 9.80384 7.91459 10.0812C7.63722 10.3586 7.2844 10.5483 6.90004 10.6267C6.59888 10.6881 6.3282 10.8518 6.13383 11.0899C5.93945 11.328 5.83331 11.626 5.83337 11.9333V21.4C5.83331 21.7074 5.93945 22.0053 6.13383 22.2434C6.3282 22.4816 6.59888 22.6452 6.90004 22.7067C7.2844 22.7851 7.63722 22.9747 7.91459 23.2521C8.19197 23.5295 8.38165 23.8823 8.46004 24.2667C8.52152 24.5678 8.68516 24.8385 8.92327 25.0329C9.16138 25.2273 9.45933 25.3334 9.76671 25.3333H11.1667V24C11.1667 23.8232 11.2369 23.6536 11.362 23.5286C11.487 23.4036 11.6566 23.3333 11.8334 23.3333C12.0102 23.3333 12.1798 23.4036 12.3048 23.5286C12.4298 23.6536 12.5 23.8232 12.5 24V25.3333H24.5667C24.8741 25.3334 25.172 25.2273 25.4101 25.0329C25.6483 24.8385 25.8119 24.5678 25.8734 24.2667C25.9518 23.8823 26.1414 23.5295 26.4188 23.2521C26.6962 22.9747 27.049 22.7851 27.4334 22.7067C27.7345 22.6452 28.0052 22.4816 28.1996 22.2434C28.394 22.0053 28.5001 21.7074 28.5 21.4V11.9333C28.5001 11.626 28.394 11.328 28.1996 11.0899C28.0052 10.8518 27.7345 10.6881 27.4334 10.6267ZM12.5 21.4333C12.5 21.6101 12.4298 21.7797 12.3048 21.9047C12.1798 22.0298 12.0102 22.1 11.8334 22.1C11.6566 22.1 11.487 22.0298 11.362 21.9047C11.2369 21.7797 11.1667 21.6101 11.1667 21.4333V19.9667C11.1667 19.7899 11.2369 19.6203 11.362 19.4953C11.487 19.3702 11.6566 19.3 11.8334 19.3C12.0102 19.3 12.1798 19.3702 12.3048 19.4953C12.4298 19.6203 12.5 19.7899 12.5 19.9667V21.4333ZM12.5 17.4C12.5 17.5768 12.4298 17.7464 12.3048 17.8714C12.1798 17.9964 12.0102 18.0667 11.8334 18.0667C11.6566 18.0667 11.487 17.9964 11.362 17.8714C11.2369 17.7464 11.1667 17.5768 11.1667 17.4V15.9333C11.1667 15.7565 11.2369 15.587 11.362 15.4619C11.487 15.3369 11.6566 15.2667 11.8334 15.2667C12.0102 15.2667 12.1798 15.3369 12.3048 15.4619C12.4298 15.587 12.5 15.7565 12.5 15.9333V17.4ZM12.5 13.3653C12.5 13.5421 12.4298 13.7117 12.3048 13.8367C12.1798 13.9618 12.0102 14.032 11.8334 14.032C11.6566 14.032 11.487 13.9618 11.362 13.8367C11.2369 13.7117 11.1667 13.5421 11.1667 13.3653V11.8987C11.1667 11.7219 11.2369 11.5523 11.362 11.4273C11.487 11.3022 11.6566 11.232 11.8334 11.232C12.0102 11.232 12.1798 11.3022 12.3048 11.4273C12.4298 11.5523 12.5 11.7219 12.5 11.8987V13.3653ZM19.8334 14C19.8312 14.5895 19.6337 15.1616 19.2718 15.627C18.91 16.0923 18.4041 16.4246 17.8334 16.572V21.3333C17.8334 21.5101 17.7631 21.6797 17.6381 21.8047C17.5131 21.9298 17.3435 22 17.1667 22C16.9899 22 16.8203 21.9298 16.6953 21.8047C16.5703 21.6797 16.5 21.5101 16.5 21.3333V16.572C15.9293 16.4246 15.4234 16.0923 15.0616 15.627C14.6997 15.1616 14.5022 14.5895 14.5 14V12C14.5 11.8232 14.5703 11.6536 14.6953 11.5286C14.8203 11.4036 14.9899 11.3333 15.1667 11.3333C15.3435 11.3333 15.5131 11.4036 15.6381 11.5286C15.7631 11.6536 15.8334 11.8232 15.8334 12V14C15.836 14.2299 15.899 14.4551 16.016 14.6531C16.133 14.851 16.2999 15.0148 16.5 15.128V12C16.5 11.8232 16.5703 11.6536 16.6953 11.5286C16.8203 11.4036 16.9899 11.3333 17.1667 11.3333C17.3435 11.3333 17.5131 11.4036 17.6381 11.5286C17.7631 11.6536 17.8334 11.8232 17.8334 12V15.128C18.0335 15.0148 18.2004 14.851 18.3174 14.6531C18.4344 14.4551 18.4974 14.2299 18.5 14V12C18.5 11.8232 18.5703 11.6536 18.6953 11.5286C18.8203 11.4036 18.9899 11.3333 19.1667 11.3333C19.3435 11.3333 19.5131 11.4036 19.6381 11.5286C19.7631 11.6536 19.8334 11.8232 19.8334 12V14ZM24.416 18.7867L22.5 19.7453V21.3333C22.5 21.5101 22.4298 21.6797 22.3048 21.8047C22.1798 21.9298 22.0102 22 21.8334 22C21.6566 22 21.487 21.9298 21.362 21.8047C21.2369 21.6797 21.1667 21.5101 21.1667 21.3333V12C21.1665 11.868 21.2054 11.7388 21.2787 11.629C21.3519 11.5191 21.4561 11.4335 21.5781 11.383C21.7001 11.3324 21.8343 11.3192 21.9638 11.345C22.0932 11.3708 22.2121 11.4345 22.3054 11.528C23.9809 13.0914 24.9991 15.2336 25.1534 17.52C25.1676 17.7801 25.1054 18.0386 24.9744 18.2637C24.8433 18.4888 24.6492 18.6706 24.416 18.7867Z" fill="currentColor"/>
  </symbol>
  <symbol fill="none" xmlns="http://www.w3.org/2000/svg" viewBox="0 0 24 24" id="icon-magnifier">
    <path d="M23.414 20.586L18.337 15.509C19.386 13.928 20 12.035 20 10C20 4.486 15.514 0 10 0C4.486 0 0 4.486 0 10C0 15.514 4.486 20 10 20C12.035 20 13.928 19.386 15.509 18.337L20.586 23.414C21.366 24.195 22.634 24.195 23.414 23.414C24.195 22.633 24.195 21.367 23.414 20.586ZM3 10C3 6.14 6.14 3 10 3C13.86 3 17 6.14 17 10C17 13.86 13.86 17 10 17C6.14 17 3 13.86 3 10Z" fill="CurrentColor"/>
  </symbol>
  <symbol fill="none" xmlns="http://www.w3.org/2000/svg" viewBox="0 0 33 32" id="icon-arrow">
    <path d="M20.5 16C20.501 16.1755 20.4673 16.3494 20.401 16.5119C20.3346 16.6743 20.2369 16.8221 20.1133 16.9467L14.78 22.28C14.5289 22.5311 14.1884 22.6721 13.8333 22.6721C13.4782 22.6721 13.1377 22.5311 12.8866 22.28C12.6356 22.0289 12.4945 21.6884 12.4945 21.3333C12.4945 20.9783 12.6356 20.6377 12.8866 20.3867L17.2866 16L12.9 11.6133C12.6815 11.3583 12.5674 11.0302 12.5803 10.6946C12.5933 10.359 12.7324 10.0407 12.9699 9.80325C13.2073 9.56579 13.5257 9.42668 13.8612 9.41372C14.1968 9.40076 14.5249 9.5149 14.78 9.73333L20.1133 15.0667C20.3596 15.315 20.4985 15.6502 20.5 16Z" fill="currentColor"/>
  </symbol>
  <symbol fill="none" xmlns="http://www.w3.org/2000/svg" viewBox="0 0 22 24" id="icon-star">
    <path d="M10.5245 0.463526C10.6741 0.00287056 11.3259 0.00287008 11.4755 0.463525L13.5819 6.9463C13.6488 7.15232 13.8408 7.2918 14.0574 7.2918H20.8738C21.3582 7.2918 21.5596 7.9116 21.1677 8.1963L15.6531 12.2029C15.4779 12.3302 15.4046 12.5559 15.4715 12.7619L17.5779 19.2447C17.7276 19.7053 17.2003 20.0884 16.8085 19.8037L11.2939 15.7971C11.1186 15.6698 10.8814 15.6698 10.7061 15.7971L5.19153 19.8037C4.79967 20.0884 4.27243 19.7053 4.42211 19.2447L6.52849 12.7619C6.59543 12.5559 6.5221 12.3302 6.34685 12.2029L0.832272 8.1963C0.440415 7.9116 0.641802 7.2918 1.12616 7.2918H7.94256C8.15917 7.2918 8.35115 7.15232 8.41809 6.9463L10.5245 0.463526Z" fill="currentColor"/>
  </symbol>
  <symbol fill="none" xmlns="http://www.w3.org/2000/svg" viewBox="0 0 24 24" id="icon-love">
    <path d="M23.4565 7.66892C23.1565 6.26267 22.669 5.10017 21.8065 4.18142C20.5878 2.83142 18.994 2.17517 17.1003 2.17517H16.8565C14.8503 2.23142 13.2003 3.03767 12.0378 4.50017C11.6065 4.01267 11.0628 3.52517 10.444 3.15017C9.22527 2.41892 7.81902 2.11892 6.22527 2.23142C4.46277 2.41892 3.05652 3.20642 2.00652 4.50017C0.900272 5.96267 0.356522 7.61267 0.412772 9.31892C0.469022 10.9127 0.956522 12.3752 1.87527 13.7814C2.90652 15.3752 4.20027 16.5939 5.36277 17.5689C7.01277 19.0314 8.90652 20.3252 11.2878 21.6564C11.5315 21.7877 11.719 21.8439 11.9628 21.8439C12.2065 21.8439 12.394 21.7877 12.6378 21.6564C14.719 20.4939 16.5378 19.2752 18.1878 17.8689C19.894 16.4627 21.1128 15.1127 22.0878 13.6502C23.4003 11.7564 23.8128 9.80642 23.4565 7.66892Z" fill="currentColor"/>
  </symbol>
  <symbol fill="none" xmlns="http://www.w3.org/2000/svg" viewBox="0 0 16 16" id="icon-plus">
    <g clip-path="url(#clip0_0_236)">
    <path d="M14.6344 6.64688H9.5375V1.36564C9.5375 0.609387 8.925 -0.00311279 8.16875 -0.00311279C7.4125 -0.00311279 6.8 0.609387 6.8 1.36564V6.64688H1.3625C0.6125 6.64688 0 7.25938 0 8.01563C0 8.77188 0.6125 9.38438 1.36875 9.38438H6.80625V14.6344C6.80625 15.3906 7.41875 16.0031 8.175 16.0031C8.93125 16.0031 9.54375 15.3906 9.54375 14.6344V9.38438H14.6406C15.3969 9.38438 16.0094 8.77188 16.0094 8.01563C16 7.25938 15.3906 6.64688 14.6344 6.64688Z" fill="white"/>
    </g>
    <defs>
    <clipPath id="clip0_0_236">
    <rect width="16" height="16" fill="white"/>
    </clipPath>
    </defs>
  </symbol>
</svg>