<svg width="0" height="0" class="hidden">
  <symbol fill="none" xmlns="http://www.w3.org/2000/svg" viewBox="0 0 56 57" id="category-bakery">
    <g clip-path="url(#clip0_0_81)">
    <path d="M37.5667 37.5417H18.6083V50.4917H37.5667V37.5417Z" fill="#A6C44A"/>
    <path d="M42.5833 12.1667C42.35 12.1667 42.0583 12.1667 41.825 12.225C40.0167 6.39167 34.1833 2.13333 27.2417 2.13333C21.1167 2.13333 15.8083 5.45833 13.4167 10.3C6.76668 11 1.57501 16.1917 1.57501 22.55C1.57501 29.375 7.64168 34.975 15.05 34.975C19.4833 34.975 23.45 32.9917 25.9 29.9583C26.3083 30.0167 26.775 30.0167 27.2417 30.0167C29.1667 30.0167 31.0333 29.6667 32.7833 29.025C34.8833 31.9417 38.5 33.8667 42.6417 33.8667C49.175 33.8667 54.4833 29.025 54.4833 23.0167C54.4833 17.0083 49.1167 12.1667 42.5833 12.1667Z" fill="#F8B602"/>
    <path d="M15.1083 36.0833C6.99998 36.0833 0.466644 30.0167 0.466644 22.55C0.466644 15.9 5.71664 10.2417 12.7166 9.19167C15.4583 4.17501 21.1166 0.966675 27.2416 0.966675C34.1833 0.966675 40.3666 5.05001 42.6416 11.0583C49.7583 11.0583 55.5916 16.425 55.5916 23.075C55.5916 29.6667 49.7583 35.0917 42.6416 35.0917C38.6166 35.0917 34.825 33.3417 32.375 30.425C30.6833 30.95 28.9916 31.1833 27.2416 31.1833C26.95 31.1833 26.6583 31.1833 26.425 31.1833C23.625 34.275 19.5416 36.0833 15.1083 36.0833ZM27.2416 3.24167C21.7583 3.24167 16.7416 6.21668 14.4666 10.7667L14.175 11.35L13.5333 11.4083C7.40831 12.1083 2.74164 16.8917 2.74164 22.55C2.74164 28.7333 8.28331 33.8083 15.1083 33.8083C19.075 33.8083 22.6916 32.1167 25.025 29.2L25.4333 28.7333L26.0166 28.7917C26.3666 28.7917 26.775 28.85 27.2416 28.85C28.9916 28.85 30.7416 28.5583 32.375 27.975L33.1916 27.6833L33.7166 28.3833C35.7 31.125 39.025 32.7583 42.6416 32.7583C48.5333 32.7583 53.3166 28.3833 53.3166 23.075C53.3166 17.7667 48.475 13.3333 42.5833 13.3333C42.4083 13.3333 42.2333 13.3333 42.0583 13.3333L41.0083 13.3917L40.7166 12.5167C39.025 7.09168 33.4833 3.24167 27.2416 3.24167Z" fill="#2E2E2E"/>
    <path d="M42.35 56.0333H13.65L7.9917 31.9417L10.0334 32.8167C11.6667 33.4583 13.3584 33.8083 15.1084 33.8083C19.075 33.8083 22.6917 32.1167 25.025 29.2L25.4334 28.7333L26.0167 28.7917C26.3667 28.7917 26.775 28.85 27.2417 28.85C28.9917 28.85 30.7417 28.5583 32.375 27.975L33.1917 27.6833L33.7167 28.3833C35.7 31.125 39.025 32.7583 42.6417 32.7583C43.8667 32.7583 45.0917 32.5833 46.2584 32.175L48.1834 31.5333L42.35 56.0333ZM15.4584 53.7583H40.6L45.0917 34.8C44.275 34.9167 43.4584 35.0333 42.6417 35.0333C38.6167 35.0333 34.825 33.2833 32.375 30.3667C30.6834 30.8917 28.9917 31.125 27.2417 31.125C26.95 31.125 26.6584 31.125 26.425 31.125C23.625 34.275 19.5417 36.0833 15.1084 36.0833C13.7667 36.0833 12.425 35.9083 11.2 35.6167L15.4584 53.7583Z" fill="#2E2E2E"/>
    <path d="M23.5667 39.9333H21.2917V47.575H23.5667V39.9333Z" fill="#2E2E2E"/>
    <path d="M29.225 39.9333H26.95V47.575H29.225V39.9333Z" fill="#2E2E2E"/>
    <path d="M34.825 39.9333H32.55V47.575H34.825V39.9333Z" fill="#2E2E2E"/>
    <path d="M13.5619 28.34L11.7328 26.6235L10.176 28.2825L12.0051 29.9989L13.5619 28.34Z" fill="#2E2E2E"/>
    <path d="M15.3772 18.1127L13.5481 16.3963L11.9913 18.0552L13.8204 19.7717L15.3772 18.1127Z" fill="#2E2E2E"/>
    <path d="M44.6505 18.9808L42.8216 17.264L41.2646 18.9227L43.0934 20.6395L44.6505 18.9808Z" fill="#2E2E2E"/>
    <path d="M35.3825 21.2482L33.5535 19.5317L31.9967 21.1906L33.8257 22.9071L35.3825 21.2482Z" fill="#2E2E2E"/>
    <path d="M47.3567 27.4415L45.5277 25.725L43.9709 27.384L45.8 29.1004L47.3567 27.4415Z" fill="#2E2E2E"/>
    <path d="M24.1422 22.9562L22.3131 21.2397L20.7563 22.8987L22.5854 24.6151L24.1422 22.9562Z" fill="#2E2E2E"/>
    <path d="M25.8272 12.9652L23.9982 11.2487L22.4414 12.9076L24.2704 14.6241L25.8272 12.9652Z" fill="#2E2E2E"/>
    <path d="M34.4964 10.1941L32.6673 8.47766L31.1105 10.1366L32.9396 11.853L34.4964 10.1941Z" fill="#2E2E2E"/>
    </g>
    <defs>
    <clipPath id="clip0_0_81">
    <rect width="56" height="56" fill="white" transform="translate(0 0.5)"/>
    </clipPath>
    </defs>
  </symbol>
  <symbol fill="none" xmlns="http://www.w3.org/2000/svg" viewBox="0 0 56 57" id="category-burger">
    <path d="M55.7084 25.4083H0.291687V24.2417C0.291687 13.7417 12.1334 1.95834 28 1.95834C43.8667 1.95834 55.7084 13.7417 55.7084 24.2417V25.4083ZM2.68335 23.075H53.375C52.5 13.975 41.9417 4.23334 28 4.23334C14.0584 4.23334 3.50002 13.975 2.68335 23.075Z" fill="#2E2E2E"/>
    <path d="M9.09998 18.4667C12.3666 13.3333 19.6 8.89999 28 8.89999C36.4 8.89999 43.575 13.3333 46.9 18.4667H9.09998ZM52.325 53.875H3.67498C2.44998 53.875 1.45831 52.8833 1.45831 51.6583V44.1917H54.5416V51.6583C54.5416 52.8833 53.55 53.875 52.325 53.875Z" fill="#A6C44A"/>
    <path d="M52.325 55.0417H3.67502C1.80835 55.0417 0.291687 53.525 0.291687 51.6583V43.0833H55.7084V51.7167C55.7084 53.525 54.1917 55.0417 52.325 55.0417ZM2.62502 45.3583V51.6583C2.62502 52.2417 3.09169 52.7083 3.67502 52.7083H52.3834C52.9667 52.7083 53.4334 52.2417 53.4334 51.6583V45.3583H2.62502Z" fill="#2E2E2E"/>
    <path d="M49.525 39.175H6.47498C3.67498 39.175 1.45831 36.9 1.45831 34.1583C1.45831 31.3583 3.73331 29.1417 6.47498 29.1417H49.525C52.325 29.1417 54.5416 31.4167 54.5416 34.1583C54.5416 36.9583 52.325 39.175 49.525 39.175Z" fill="#F8B602"/>
    <path d="M49.525 40.3417H6.47502C3.03335 40.3417 0.291687 37.5417 0.291687 34.1583C0.291687 30.775 3.09169 27.975 6.47502 27.975H49.525C52.9667 27.975 55.7084 30.775 55.7084 34.1583C55.7084 37.5417 52.9084 40.3417 49.525 40.3417ZM6.47502 30.25C4.31669 30.25 2.56669 32 2.56669 34.1583C2.56669 36.3167 4.31669 38.0667 6.47502 38.0667H49.525C51.6834 38.0667 53.4334 36.3167 53.4334 34.1583C53.4334 32 51.6834 30.25 49.525 30.25H6.47502Z" fill="#F8B602"/>
    <path d="M30.8 36.3167C29.6916 36.3167 28.7 35.9083 27.7666 35.5583C27.0083 35.2667 26.3083 34.975 25.6666 34.975C24.9083 34.9167 24.0333 35.2083 23.1583 35.4417C21.8166 35.85 20.3 36.3167 18.7833 35.7917C18.3166 35.6167 17.9083 35.3833 17.5583 35.2083C17.325 35.0917 17.0916 34.9167 16.8583 34.8583C15.75 34.3917 14.4083 34.6833 12.95 35.0333L12.5416 35.15C10.85 35.5 8.39996 35.85 6.64996 34.3333L8.16663 32.5833C8.92496 33.225 10.15 33.3417 12.075 32.9333L12.4833 32.8167C14.1166 32.4667 15.9833 32.0583 17.7916 32.7583C18.1416 32.9333 18.4333 33.1083 18.7833 33.225C19.075 33.4 19.3666 33.575 19.6 33.6333C20.4166 33.925 21.4083 33.6333 22.575 33.2833C23.625 32.9917 24.675 32.6417 25.9 32.7C26.95 32.7583 27.825 33.1083 28.7 33.4583C29.6333 33.8083 30.5083 34.1583 31.2666 34.0417C31.5583 33.9833 31.9083 33.8667 32.3166 33.6917C32.4916 33.6333 32.6083 33.575 32.7833 33.5167C34.5333 32.8167 36.575 32.6417 38.4416 33.05C38.7333 33.1083 39.0833 33.1667 39.375 33.2833C39.9583 33.4583 40.5416 33.575 41.0666 33.575C41.825 33.575 42.6416 33.225 43.4583 32.9333C43.8083 32.8167 44.1583 32.6417 44.5083 32.525C46.4916 31.825 48.2416 32 49.4083 32.9917L47.8916 34.7417C47.1333 34.1 45.7916 34.5083 45.2083 34.6833C44.9166 34.8 44.5666 34.9167 44.275 35.0333C43.2833 35.4417 42.2333 35.85 41.0083 35.85C41.0083 35.85 41.0083 35.85 40.95 35.85C40.1333 35.85 39.375 35.675 38.675 35.5C38.3833 35.4417 38.15 35.3833 37.8583 35.325C36.4 35.0333 34.8833 35.15 33.5416 35.675C33.425 35.7333 33.25 35.7917 33.1333 35.85C32.6666 36.025 32.2 36.2583 31.6166 36.3167C31.325 36.2583 31.0916 36.3167 30.8 36.3167Z" fill="#2E2E2E"/>
    <path d="M9.11769 19.0613L7.76434 17.1605L6.00614 18.4123L7.35949 20.3131L9.11769 19.0613Z" fill="#2E2E2E"/>
    <path d="M40.0945 11.8803L38.7409 9.97974L36.9829 11.2318L38.3365 13.1324L40.0945 11.8803Z" fill="#2E2E2E"/>
    <path d="M34.5034 9.538L33.1501 7.63724L31.3919 8.88908L32.7452 10.7898L34.5034 9.538Z" fill="#2E2E2E"/>
    <path d="M13.4828 14.6626L11.9265 12.9241L10.8834 13.8578L12.4397 15.5964L13.4828 14.6626Z" fill="#2E2E2E"/>
    <path d="M21.0213 10.9073L20.1235 8.75363L18.4544 9.44947L19.3522 11.6031L21.0213 10.9073Z" fill="#2E2E2E"/>
    <path d="M15.4572 20.0792L14.4672 17.9663L13.2523 18.5355L14.2423 20.6484L15.4572 20.0792Z" fill="#2E2E2E"/>
    <path d="M26.6583 9.71667L25.2 7.90834C25.9 7.325 26.775 6.91667 27.65 6.74167L28.175 8.95834C27.5916 9.13334 27.0666 9.36667 26.6583 9.71667ZM17.7916 16.5417L17.2083 14.325C17.7333 14.2083 18.2583 13.975 18.725 13.7417L19.775 15.7833C19.1333 16.075 18.4916 16.3083 17.7916 16.5417Z" fill="#2E2E2E"/>
    <path d="M30.8663 19.6824L30.1247 17.4701L28.1889 18.1189L28.9305 20.3313L30.8663 19.6824Z" fill="#2E2E2E"/>
    <path d="M42.6121 20.4088L41.8705 18.1964L39.9347 18.8453L40.6763 21.0577L42.6121 20.4088Z" fill="#2E2E2E"/>
    <path d="M35.6417 20.8583L34.7083 18.7583C35.2917 18.525 35.875 18.2917 36.4583 18.175L36.925 20.45C36.4583 20.5667 35.9917 20.6833 35.6417 20.8583ZM32.6667 16.3667L31.7333 14.2667C32.3167 14.0333 32.9 13.8583 33.4833 13.6833L33.95 15.9583C33.4833 16.0167 33.075 16.1917 32.6667 16.3667Z" fill="#2E2E2E"/>
    <path d="M26.931 14.8917L26.187 12.6802L24.86 13.1267L25.6041 15.3382L26.931 14.8917Z" fill="#2E2E2E"/>
    <path d="M16.0246 12.0402L15.2795 9.82901L13.9528 10.2761L14.6979 12.4872L16.0246 12.0402Z" fill="#2E2E2E"/>
    <path d="M24.0144 20.5081L23.2693 18.2969L21.9426 18.744L22.6877 20.9551L24.0144 20.5081Z" fill="#2E2E2E"/>
    <path d="M48.1248 18.756L47.3807 16.5445L46.0538 16.9909L46.7979 19.2025L48.1248 18.756Z" fill="#2E2E2E"/>
    <path d="M43.9296 16.2154L43.1855 14.0039L41.8586 14.4503L42.6027 16.6618L43.9296 16.2154Z" fill="#2E2E2E"/>
  </symbol>
  <symbol fill="none" xmlns="http://www.w3.org/2000/svg" viewBox="0 0 56 57" id="category-beverage"><g clip-path="url(#clip0_0_126)">
    <path d="M11.4917 49.9667C10.9083 49.4417 10.325 48.8 9.79999 48.2167L11.55 46.7C12.0167 47.225 12.5417 47.8083 13.0667 48.275L11.4917 49.9667ZM7.64166 45.3C7.23333 44.6 6.82499 43.9 6.41666 43.2L8.45833 42.15C8.80833 42.7917 9.15833 43.4333 9.56666 44.075L7.64166 45.3ZM5.07499 39.8167C4.84166 39.0583 4.60833 38.2417 4.43333 37.4833L6.70833 37.0167C6.88333 37.7167 7.05833 38.4167 7.29166 39.1167L5.07499 39.8167ZM3.96666 33.8667C3.90833 33.3417 3.90833 32.875 3.90833 32.35C3.90833 32.0583 3.90833 31.7667 3.90833 31.4167L6.24166 31.5333C6.24166 31.825 6.24166 32.0583 6.24166 32.35C6.24166 32.8167 6.24166 33.2833 6.29999 33.6917L3.96666 33.8667ZM6.59166 28.2667L4.31666 27.8583C4.49166 27.0417 4.66666 26.2833 4.89999 25.525L7.11666 26.1667C6.88333 26.8667 6.70833 27.5667 6.59166 28.2667ZM8.28333 23.075L6.18333 22.0833C6.53333 21.3833 6.88333 20.625 7.34999 19.925L9.33333 21.0917C8.92499 21.7917 8.57499 22.4333 8.28333 23.075ZM45.3833 49.0917L43.75 47.4583C44.275 46.9333 44.7417 46.35 45.2083 45.825L47.0167 47.225C46.4917 47.8667 45.9667 48.5083 45.3833 49.0917ZM49 44.1917L47.0167 43.0833C47.3667 42.4417 47.7167 41.8 48.0083 41.1L50.1083 42.0333C49.7583 42.7917 49.4083 43.4917 49 44.1917ZM51.275 38.65L49.0583 38.0667C49.2333 37.3667 49.4083 36.6667 49.525 35.9083L51.8 36.2583C51.6833 37.0167 51.5083 37.8333 51.275 38.65ZM52.0917 32.6417H49.7583V32.4083C49.7583 31.7667 49.7 31.0667 49.6417 30.425L51.9167 30.1917C51.975 30.8917 52.0333 31.65 52.0333 32.35L52.0917 32.6417ZM49.175 27.1583C49 26.4583 48.7667 25.7583 48.5333 25.0583L50.6917 24.3C50.9833 25.0583 51.2167 25.8167 51.3917 26.6333L49.175 27.1583ZM47.1917 22.0833C46.8417 21.4417 46.4917 20.8 46.0833 20.2167L48.0083 18.9333C48.475 19.575 48.8833 20.275 49.2917 21.0333L47.1917 22.0833Z" fill="#2E2E2E"/>
    <path d="M12.8917 1.95834H43.1083L47.0167 9.71668H8.98334L12.8917 1.95834Z" fill="#A6C44A"/>
    <path d="M48.9417 10.8833H7.1167L12.1917 0.791656H43.8667L48.9417 10.8833ZM10.85 8.54999H45.2084L42.4667 3.06666H13.65L10.85 8.54999Z" fill="#2E2E2E"/>
    <path d="M16.8 55.0417H39.2L40.6 44.0167H15.4L16.8 55.0417Z" fill="white"/>
    <path d="M40.25 56.2083H15.75L14.1167 42.85H41.9417L40.25 56.2083ZM17.7917 53.875H38.2084L39.3167 45.125H16.6834L17.7917 53.875Z" fill="#2E2E2E"/>
    <path d="M44.8583 9.71667H11.1417L12.4833 20.7417H43.5167L44.8583 9.71667Z" fill="white"/>
    <path d="M44.5083 21.9084H11.4917L9.85834 8.55002H46.2L44.5083 21.9084ZM13.5333 19.575H42.4667L43.575 10.825H12.425L13.5333 19.575Z" fill="#2E2E2E"/>
    <path d="M12.4833 20.7417L15.4 44.0167H40.6L43.5167 20.7417H12.4833Z" fill="#F8B602"/>
    <path d="M41.5917 45.1833H14.4083L11.2 19.6333H44.8L41.5917 45.1833ZM16.3917 42.85H39.55L42.175 21.9083H13.825L16.3917 42.85Z" fill="#F8B602"/>
    <path d="M28.0001 40.3416C31.5117 40.3416 34.3584 36.7898 34.3584 32.4083C34.3584 28.0269 31.5117 24.475 28.0001 24.475C24.4884 24.475 21.6417 28.0269 21.6417 32.4083C21.6417 36.7898 24.4884 40.3416 28.0001 40.3416Z" fill="white"/>
    <path d="M28 41.45C23.8584 41.45 20.475 37.3667 20.475 32.35C20.475 27.3333 23.8584 23.3083 28 23.3083C32.1417 23.3083 35.525 27.3917 35.525 32.4083C35.525 37.425 32.1417 41.45 28 41.45ZM28 25.5833C25.1417 25.5833 22.8084 28.6167 22.8084 32.35C22.8084 36.0833 25.1417 39.1167 28 39.1167C30.8584 39.1167 33.1917 36.0833 33.1917 32.35C33.1917 28.6167 30.8584 25.5833 28 25.5833Z" fill="#2E2E2E"/>
    <path d="M27.475 40.575C26.8333 38.9417 26.775 37.1917 27.2416 35.5C27.3583 35.0917 27.5333 34.6833 27.65 34.3333C27.825 33.8083 28 33.3417 28.1166 32.9333C28.2333 32.175 28.1166 31.3 27.7666 30.425C27.4166 29.55 26.8333 28.675 26.25 27.8583C25.9 27.3917 25.6083 26.8667 25.375 26.2833C25.0833 25.4667 25.025 24.65 25.3166 23.95L27.475 24.825C27.4166 25 27.4166 25.2333 27.5333 25.4667C27.65 25.8167 27.8833 26.1667 28.175 26.5167C28.8166 27.45 29.4583 28.4417 29.925 29.55C30.45 30.8333 30.625 32.175 30.45 33.3417C30.3333 34.0417 30.1 34.625 29.8666 35.2083C29.75 35.5583 29.6333 35.85 29.5166 36.2C29.1666 37.3667 29.225 38.65 29.6916 39.7583L27.475 40.575Z" fill="#2E2E2E"/>
    </g>
    <defs>
    <clipPath id="clip0_0_126">
    <rect width="56" height="56" fill="white" transform="translate(0 0.5)"/>
    </clipPath>
    </defs>
  </symbol>
  <symbol fill="none" xmlns="http://www.w3.org/2000/svg" viewBox="0 0 56 57" id="category-chicken">
    <path d="M14.4083 55.625C9.97497 55.625 5.54164 54.05 2.79997 50.4917C0.408302 47.4 -0.291698 43.2583 0.699968 38.7667C1.6333 34.6833 3.96663 30.8333 6.99997 28.5583C11.9583 24.7667 35.0583 13.2167 41.1833 21.2083C43.8083 24.7083 42.525 30.6 37.45 38.2417C33.4833 44.1917 28.1166 49.9083 25.0833 52.1833C22.225 54.4 18.3166 55.625 14.4083 55.625ZM34.0083 20.6833C26.075 20.6833 12.8916 26.9833 8.39997 30.3667C5.8333 32.35 3.79164 35.675 2.97497 39.2333C2.09997 43.025 2.74164 46.525 4.66664 49.0917C8.92497 54.6334 18.4916 54.3417 23.6833 50.4333C26.6 48.2167 31.85 42.5583 35.525 37.0167C39.9583 30.3083 41.3 25.2333 39.3166 22.6083C38.2666 21.2667 36.3416 20.6833 34.0083 20.6833Z" fill="#2E2E2E"/>
    <path d="M14.4666 49.85C11.375 49.85 8.80831 48.8 7.40831 46.9917C6.12498 45.3 5.71664 42.7333 6.35831 40.05C6.94164 37.25 8.51664 34.625 10.5 33.1667C14.6416 30.0167 27.0666 24.1833 34.0083 24.1833C35.8166 24.1833 36.5166 24.5917 36.6333 24.7083C36.9833 25.1167 37.275 28.15 32.6666 35.0917C28.8166 40.8083 23.7416 46 21.525 47.6917C19.775 49.0333 17.0916 49.85 14.4666 49.85Z" fill="#F8B602"/>
    <path d="M53.7249 16.8333C53.2583 16.1917 52.6749 15.725 52.0333 15.375C50.8083 14.7333 49.8749 13.5667 49.6416 12.225C49.4666 11.525 49.1749 10.825 48.7083 10.2417C47.2499 8.43332 44.2749 8.02499 42.3499 9.36665C40.1916 10.8833 39.7249 13.9167 41.2999 16.0167C41.7083 16.5417 41.6499 17.3 41.1249 17.65L37.8583 20.1583C38.7916 20.5667 39.6083 21.0917 40.1916 21.9083C40.7749 22.6666 41.1249 23.6 41.2416 24.5916L44.5083 22.0833C45.0333 21.675 45.7333 21.7917 46.1416 22.3167C47.7749 24.4166 50.8083 24.7666 52.8499 23.075C54.7166 21.675 55.0666 18.7 53.7249 16.8333Z" fill="#A6C44A"/>
    <path d="M40.3667 26.75L40.1334 24.7667C40.0167 23.8917 39.7834 23.1917 39.3167 22.6083C38.85 22.025 38.2667 21.5583 37.45 21.2667L35.5834 20.5083L40.4834 16.775L40.425 16.7167C39.4334 15.4333 39.025 13.8583 39.3167 12.2833C39.55 10.7083 40.425 9.30832 41.7084 8.37499C44.1 6.68332 47.7167 7.14999 49.5834 9.48332C50.1667 10.2417 50.575 11.0583 50.75 11.9333C50.9834 12.9833 51.625 13.8583 52.5584 14.325C53.375 14.7333 54.075 15.375 54.6584 16.1333C56.4084 18.525 55.8834 22.1417 53.6084 24.0083C52.3834 25.0583 50.8084 25.4667 49.2334 25.2917C47.6584 25.1167 46.2584 24.3 45.2667 23.0167L45.2084 22.9583L40.3667 26.75ZM45.2084 20.7417C45.325 20.7417 45.4417 20.7417 45.5 20.7417C46.1417 20.8 46.6667 21.15 47.075 21.675C47.6584 22.4333 48.5334 22.9583 49.4667 23.075C50.4584 23.1917 51.3917 22.9 52.15 22.2583C53.4917 21.15 53.7834 18.875 52.7917 17.475C52.4417 17.0083 52.0334 16.6583 51.5667 16.3667C49.9917 15.55 48.8834 14.15 48.5334 12.4C48.4167 11.875 48.1834 11.35 47.8334 10.8833C46.725 9.54166 44.45 9.24999 43.05 10.2417C42.2334 10.825 41.7084 11.6417 41.5917 12.575C41.4167 13.5083 41.7084 14.5 42.2917 15.2583C42.7 15.7833 42.875 16.3667 42.7584 17.0083C42.7 17.5917 42.35 18.175 41.8834 18.525L40.0167 19.9833C40.4834 20.3333 40.8334 20.6833 41.1834 21.15C41.5334 21.6167 41.7667 22.0833 42 22.6083L43.8667 21.15C44.275 20.9167 44.7417 20.7417 45.2084 20.7417Z" fill="#2E2E2E"/>
    <path d="M7.90397 37.1416L6.22736 36.9164L5.91674 39.229L7.59335 39.4542L7.90397 37.1416Z" fill="#2E2E2E"/>
    <path d="M20.3849 37.4901L18.7083 37.2649L18.3977 39.5775L20.0743 39.8027L20.3849 37.4901Z" fill="#2E2E2E"/>
    <path d="M31.7651 34.8619L30.0884 34.6367L29.7778 36.9493L31.4544 37.1745L31.7651 34.8619Z" fill="#2E2E2E"/>
    <path d="M14.902 48.0451L13.2254 47.8199L12.9148 50.1325L14.5914 50.3577L14.902 48.0451Z" fill="#2E2E2E"/>
    <path d="M18.9258 30.8381L17.2491 30.6129L16.9385 32.9254L18.6151 33.1506L18.9258 30.8381Z" fill="#2E2E2E"/>
    <path d="M30.7143 25.2949L29.0377 25.0697L28.727 27.3823L30.4037 27.6075L30.7143 25.2949Z" fill="#2E2E2E"/>
    <path d="M15.6333 1.375H13.3V8.60833H15.6333V1.375Z" fill="#2E2E2E"/>
    <path d="M8.75002 11.4667H6.41669V18.7H8.75002V11.4667Z" fill="#2E2E2E"/>
    <path d="M22.575 9.19168H20.2417V16.425H22.575V9.19168Z" fill="#2E2E2E"/>
  </symbol>
  <symbol fill="none" xmlns="http://www.w3.org/2000/svg" viewBox="0 0 56 57" id="category-pizza">
    <g clip-path="url(#clip0_0_161)">
    <path d="M31.7334 49.325C22.4001 53.4083 11.4917 49.15 7.40839 39.8167C3.32505 30.4833 7.58339 19.575 16.9167 15.4917C21.5834 13.45 26.6584 13.5083 31.0334 15.2L32.9584 10.2417C27.3001 8.025 20.7667 7.96667 14.7584 10.5917C2.74172 15.8417 -2.74161 29.9 2.50839 41.9167C7.75839 53.9333 21.8167 59.4167 33.8334 54.1667C45.8501 48.9167 51.3334 34.8583 46.0834 22.8417L41.2417 25C45.3251 34.3333 41.0667 45.2417 31.7334 49.325Z" fill="#F8B602"/>
    <path d="M38.85 7.26665C43.2833 8.95832 47.0166 12.4 49.0583 17.0667L53.9 14.9083C51.275 8.89999 46.4916 4.52499 40.775 2.30832L38.85 7.26665Z" fill="#A6C44A"/>
    <path d="M48.475 18.5833L48.0084 17.5333C46.1417 13.275 42.7584 10.0667 38.4417 8.37499L37.3334 7.90832L40.1334 0.791656L41.2417 1.19999C47.425 3.64999 52.325 8.31666 55.0084 14.4417L55.475 15.4917L48.475 18.5833ZM40.3667 6.62499C44.3917 8.49166 47.6 11.5833 49.6417 15.55L52.3834 14.3833C50.05 9.71666 46.2584 6.04166 41.475 3.88332L40.3667 6.62499Z" fill="#2E2E2E"/>
    <path d="M49.0584 17.0667C47.0167 12.4 43.2834 9.01666 38.8501 7.26666L32.1417 24.475L49.0584 17.0667Z" fill="#F8B602"/>
    <path d="M30.0416 26.6917L38.2083 5.75L39.3166 6.15833C44.2166 8.08333 48.0666 11.7583 50.1666 16.6L50.6333 17.65L30.0416 26.6917ZM39.4916 8.78333L34.2416 22.2583L47.4833 16.4833C45.7333 13.1 42.9333 10.4167 39.4916 8.78333Z" fill="#2E2E2E"/>
    <path d="M24.325 52.0667C16.7417 52.0667 9.50833 47.6917 6.3 40.2833C1.925 30.3667 6.475 18.7583 16.3917 14.3833C21.175 12.2833 26.5417 12.1667 31.4417 14.0917L32.55 14.5L26.425 30.1917L41.825 23.425L42.2917 24.475C44.3917 29.2583 44.5083 34.625 42.5833 39.525C40.6583 44.425 36.9833 48.275 32.1417 50.375C29.6333 51.5417 27.0083 52.0667 24.325 52.0667ZM8.45833 39.35C12.3083 48.1 22.5167 52.0667 31.2667 48.275C35.525 46.4083 38.7333 43.025 40.425 38.7083C41.9417 34.7417 42 30.4833 40.6 26.575L22.225 34.625L29.5167 15.9C25.55 14.6167 21.2333 14.85 17.3833 16.5417C8.63333 20.3917 4.66667 30.6 8.45833 39.35Z" fill="#2E2E2E"/>
    <path d="M17.9084 45.0083C19.5192 45.0083 20.825 43.7025 20.825 42.0917C20.825 40.4809 19.5192 39.175 17.9084 39.175C16.2975 39.175 14.9917 40.4809 14.9917 42.0917C14.9917 43.7025 16.2975 45.0083 17.9084 45.0083Z" fill="#A6C44A"/>
    <path d="M17.9084 46.175C16.3334 46.175 14.8167 45.2416 14.1167 43.725C13.65 42.7333 13.65 41.625 14.0584 40.575C14.4667 39.525 15.225 38.7666 16.2167 38.3C17.2084 37.8333 18.3167 37.8333 19.3667 38.2416C20.4167 38.65 21.175 39.4083 21.6417 40.4C22.1084 41.3916 22.1084 42.5 21.7 43.55C21.2917 44.6 20.5334 45.3583 19.5417 45.825C19.0167 46.0583 18.4334 46.175 17.9084 46.175ZM17.9084 40.2833C17.675 40.2833 17.4417 40.3416 17.2084 40.4583C16.8 40.6333 16.45 40.9833 16.275 41.45C16.1 41.9166 16.1 42.3833 16.275 42.7916C16.6834 43.6666 17.7334 44.075 18.6084 43.725C19.0167 43.55 19.3667 43.2 19.5417 42.7333C19.7167 42.2666 19.7167 41.8 19.5417 41.3916C19.3667 40.9833 19.0167 40.6333 18.55 40.4583C18.3167 40.3416 18.0834 40.2833 17.9084 40.2833Z" fill="#A6C44A"/>
    <path d="M15.9833 26.6333C17.4008 26.6333 18.55 25.4842 18.55 24.0667C18.55 22.6491 17.4008 21.5 15.9833 21.5C14.5658 21.5 13.4166 22.6491 13.4166 24.0667C13.4166 25.4842 14.5658 26.6333 15.9833 26.6333Z" fill="#A6C44A"/>
    <path d="M15.9833 27.8C15.5166 27.8 15.05 27.7417 14.6416 27.5667C13.7083 27.2167 13.0083 26.5167 12.6 25.5833C12.1916 24.65 12.1916 23.6583 12.5416 22.725C12.8916 21.7917 13.5916 21.0917 14.525 20.6833C16.3916 19.8667 18.6083 20.7417 19.425 22.6083C20.2416 24.475 19.3666 26.6917 17.5 27.5083C17.0333 27.6833 16.5083 27.8 15.9833 27.8ZM15.9833 22.725C15.8083 22.725 15.6333 22.7833 15.4583 22.8417C15.1083 23.0167 14.875 23.25 14.7 23.6C14.5833 23.95 14.5833 24.3 14.7 24.65C14.8166 25 15.1083 25.2333 15.4583 25.4083C15.8083 25.525 16.1583 25.525 16.5083 25.4083C17.2083 25.1167 17.5 24.3 17.2083 23.6C17.0333 23.0167 16.5083 22.725 15.9833 22.725Z" fill="#A6C44A"/>
    <path d="M32.9584 44.3667C32.4917 44.3667 32.0834 44.3083 31.6167 44.1333C30.6834 43.7833 29.9834 43.0833 29.5751 42.2083L31.7334 41.275C31.8501 41.625 32.1417 41.8583 32.4334 41.975C32.7834 42.0917 33.1334 42.0917 33.4251 41.975C34.0667 41.6833 34.4167 40.925 34.1251 40.225L36.2834 39.2917C37.1001 41.1583 36.2251 43.3167 34.4167 44.1333C33.9501 44.3083 33.4834 44.3667 32.9584 44.3667ZM40.5417 18.1167C39.1417 18.1167 37.8001 17.3 37.1584 15.9L39.3167 14.9667C39.6084 15.6083 40.3667 15.9583 41.0667 15.6667C41.7084 15.375 42.0584 14.6167 41.7667 13.9167L43.9251 12.9833C44.7417 14.85 43.8667 17.0083 42.0584 17.825C41.5334 18.0583 41.0667 18.1167 40.5417 18.1167Z" fill="#2E2E2E"/>
    <path d="M10.8684 33.9205L8.54578 33.6975L8.37855 35.4394L10.7011 35.6624L10.8684 33.9205Z" fill="#2E2E2E"/>
    <path d="M13.5333 38.7083L11.2583 38.2417C11.375 37.6 11.6666 36.9583 12.075 36.4333L13.9416 37.8333C13.7083 38.125 13.5916 38.4167 13.5333 38.7083ZM16.45 33.575L14.525 32.2333C14.8166 31.7667 15.225 31.4167 15.6916 31.0667L17.0333 32.9917C16.8 33.1083 16.625 33.3417 16.45 33.575Z" fill="#2E2E2E"/>
    <path d="M23.1208 27.3707L21.0125 26.3711L20.4877 27.478L22.5961 28.4776L23.1208 27.3707Z" fill="#2E2E2E"/>
    <path d="M42.0447 11.4372L39.9349 10.4405L39.4116 11.5481L41.5214 12.5448L42.0447 11.4372Z" fill="#2E2E2E"/>
    <path d="M26.0166 21.2667L23.6833 20.8583C23.8 20.275 24.0333 19.6917 24.3833 19.225L26.3083 20.5667C26.1333 20.7417 26.075 21.0333 26.0166 21.2667ZM21.7583 19.6917L19.4833 19.05C19.6583 18.4667 19.95 17.8833 20.4166 17.4167L22.1083 19.05C21.9916 19.225 21.8166 19.4583 21.7583 19.6917ZM9.44997 28.325C9.21664 27.6833 9.21664 26.9833 9.56664 26.3417L11.6666 27.45L9.44997 28.325Z" fill="#2E2E2E"/>
    <path d="M23.6112 38.381L22.6758 36.2433L21.7673 36.6409L22.7027 38.7785L23.6112 38.381Z" fill="#2E2E2E"/>
    <path d="M26.1502 42.9434L25.2126 40.8067L24.3046 41.2052L25.2421 43.3419L26.1502 42.9434Z" fill="#2E2E2E"/>
    <path d="M24.9236 47.3403L24.4576 45.054L23.0287 45.3452L23.4946 47.6315L24.9236 47.3403Z" fill="#2E2E2E"/>
    <path d="M31.3694 46.5832L30.115 44.6158L28.4918 45.6506L29.7462 47.6181L31.3694 46.5832Z" fill="#2E2E2E"/>
    <path d="M26.775 38.3583C26.775 37.5417 27.125 36.7833 27.7667 36.3167L29.225 38.1833C29.1667 38.1833 29.1667 38.2417 29.1667 38.3L26.775 38.3583Z" fill="#2E2E2E"/>
    <path d="M33.0205 32.8022L31.7057 30.8745L30.5009 31.6963L31.8158 33.6239L33.0205 32.8022Z" fill="#2E2E2E"/>
    <path d="M34.0084 38.0667L33.3667 35.7917C33.5417 35.7333 33.775 35.6167 33.8917 35.5L35.4084 37.3083C35 37.6583 34.5334 37.8917 34.0084 38.0667Z" fill="#2E2E2E"/>
    <path d="M39.4254 32.0582L37.7325 30.4524L36.4077 31.8489L38.1005 33.4548L39.4254 32.0582Z" fill="#2E2E2E"/>
    <path d="M20.6928 33.95L18.6458 32.8302L18.2538 33.5466L20.3008 34.6665L20.6928 33.95Z" fill="#2E2E2E"/>
    <path d="M38.612 19.0257L36.5654 17.905L36.1732 18.6213L38.2197 19.742L38.612 19.0257Z" fill="#2E2E2E"/>
    </g>
    <defs>
    <clipPath id="clip0_0_161">
    <rect width="56" height="56" fill="white" transform="translate(0 0.5)"/>
    </clipPath>
    </defs>
  </symbol>
  <symbol fill="none" xmlns="http://www.w3.org/2000/svg" viewBox="0 0 56 57" id="category-seafood">
    <g clip-path="url(#clip0_0_194)">
    <path d="M34.7083 37.075C30.2167 37.075 21.2333 32.8167 14.0583 25.6417C9.50833 21.0917 7.93333 16.075 7.875 12.5167L9.39167 10.0667L11.4917 8.49167C11.55 8.49167 11.6667 8.49167 11.725 8.49167C14.4667 8.49167 19.8333 9.30834 25.1417 14.5583C29.3417 18.7583 33.0167 24.1833 35.0583 29.0833C36.9833 33.8083 36.6917 36.375 36.225 36.7833C36.1667 36.8417 35.7 37.075 34.7083 37.075Z" fill="#F8B602"/>
    <path d="M19.1916 28.3833C18.7833 28.3833 18.4916 28.2084 18.375 28.15C17.2666 27.5667 16.45 26.4583 15.9833 25.0583C15.6333 23.8917 15.6333 22.725 15.6333 21.675L17.9083 21.6167C17.9083 22.55 17.9666 23.5417 18.2 24.4167C18.3166 24.7667 18.4333 25.0583 18.6083 25.35C18.6666 25.1167 18.6666 24.65 19.0166 24.2417C19.5416 23.6 20.475 23.425 21.35 23.8917C21.4666 23.95 21.5833 24.0084 21.7 24.0667C21.7583 24.125 21.8166 24.125 21.875 24.1833C21.875 24.1833 21.875 24.1833 21.875 24.125C21.9333 23.95 21.9333 23.7167 21.875 23.3667C21.875 23.25 21.8166 23.1917 21.8166 23.075C21.7583 22.725 21.6416 22.375 21.6416 21.9667C21.6416 21.0917 22.1083 20.275 22.8666 19.9833C23.45 19.75 24.0333 19.8083 24.4416 19.925L23.975 18.2333C23.8583 17.825 23.975 17.4167 24.2666 17.125C24.2666 17.125 24.2666 17.125 24.325 17.0667C23.275 16.8917 22.1083 17.0083 21 17.125L20.7666 14.85C22.05 14.7333 23.5083 14.5583 24.9083 14.85C26.6583 15.2 28.0583 16.1333 28.8166 17.4167C28.9916 17.7083 28.9916 18.1167 28.875 18.4667C28.7 18.8167 28.4083 19.05 28.0583 19.1083C27.5916 19.1667 27.125 19.225 26.6583 19.225L26.7166 19.4C27.0083 20.45 26.8333 21.2667 26.25 21.7917C25.4916 22.4333 24.6166 22.2 24.15 22.0833C24.0916 22.0833 24.0333 22.0833 24.0333 22.025C24.0333 22.1417 24.0916 22.3167 24.15 22.4917C24.15 22.6083 24.2083 22.725 24.2083 22.8417C24.3833 23.6583 24.325 24.3584 24.0916 24.9417C23.6833 25.875 22.75 26.4583 21.8166 26.3417C21.4083 26.2833 21.1166 26.1667 20.8833 25.9917L20.7666 26.75C20.5916 28.0333 19.775 28.2667 19.4833 28.2667C19.3083 28.3833 19.25 28.3833 19.1916 28.3833Z" fill="#2E2E2E"/>
    <path d="M15.2251 11.7C14.2917 12.6333 12.8334 12.6333 11.9001 11.7C10.9667 10.7667 10.9667 9.30832 11.9001 8.37499C12.8334 7.44165 14.2917 7.44165 15.2251 8.37499C16.1584 9.30832 16.1584 10.7667 15.2251 11.7Z" fill="#A6C44A"/>
    <path d="M13.5333 13.5083C12.5999 13.5083 11.7249 13.1583 11.0833 12.4583C9.74161 11.1167 9.74161 8.90001 11.0833 7.50001C11.7249 6.85835 12.5999 6.45001 13.5333 6.45001C14.4666 6.45001 15.3416 6.80001 15.9833 7.50001C17.3249 8.84168 17.3249 11.0583 15.9833 12.4583C15.3416 13.1583 14.4666 13.5083 13.5333 13.5083ZM13.5333 8.78335C13.1833 8.78335 12.8916 8.90001 12.6583 9.13335C12.1916 9.60001 12.1916 10.4167 12.6583 10.8833C13.1249 11.35 13.9416 11.35 14.4083 10.8833C14.8749 10.4167 14.8749 9.60001 14.4083 9.13335C14.1749 8.90001 13.8833 8.78335 13.5333 8.78335Z" fill="#2E2E2E"/>
    <path d="M34.7083 42.5583C28.0583 42.5583 17.7917 37.075 10.2083 29.4917C1.45833 20.7417 1.80833 11.175 3.20833 7.325L3.49999 6.45L5.83333 6.68333L5.54166 4.23333L6.29999 3.88333C10.675 2.075 20.7083 2.30833 28.9917 10.65C38.675 20.3333 45.5 35.2083 40.075 40.6333C38.85 41.8583 37.0417 42.5583 34.7083 42.5583ZM5.07499 8.9C4.02499 13.1 4.95833 20.975 11.7833 27.8583C18.8417 34.9167 28.7 40.225 34.7083 40.225C36.4 40.225 37.6833 39.8167 38.5583 38.9417C42.525 34.975 36.9833 21.7333 27.475 12.1667C20.3583 5.16666 12.1333 4.46666 7.99166 5.69166L8.39999 9.30833L5.07499 8.9Z" fill="#2E2E2E"/>
    <path d="M40.95 35.6167C40.8917 37.3667 40.3667 38.825 39.3751 39.8167C38.3834 40.8083 36.925 41.3333 35.175 41.3917L38.6167 53.9917L53.4917 39L40.95 35.6167Z" fill="#A6C44A"/>
    <path d="M37.975 56.15L33.6583 40.2833L35.0583 40.225C36.575 40.1667 37.7417 39.7583 38.5 38.9417C39.2583 38.1833 39.6667 37.0167 39.7833 35.5L39.8417 34.1L55.7083 38.4167L37.975 56.15ZM36.575 42.3833L39.1417 51.8333L51.3333 39.5833L41.8833 37.0167C41.5917 38.475 41.0083 39.6417 40.1333 40.575C39.2583 41.5083 38.0333 42.0917 36.575 42.3833Z" fill="#2E2E2E"/>
    <path d="M26.425 52.9417C25.725 52.9417 25.025 52.9417 24.3833 52.8833L24.5583 50.6083C25.2 50.6667 25.8416 50.6667 26.425 50.6667C26.5416 50.6667 26.6 50.6667 26.7166 50.6667L26.775 52.9417C26.6583 52.9417 26.5416 52.9417 26.425 52.9417ZM30.275 52.65L29.925 50.4333C30.625 50.3167 31.325 50.2 32.025 50.025L32.55 52.2417C31.85 52.3583 31.0333 52.5333 30.275 52.65ZM20.8833 52.3583C20.125 52.1833 19.3666 52.0083 18.6083 51.775L19.3083 49.6167C20.0083 49.85 20.7083 50.025 21.4083 50.1417L20.8833 52.3583ZM15.2833 50.4917C14.5833 50.1417 13.8833 49.7917 13.1833 49.3833L14.35 47.4583C14.9916 47.8083 15.6333 48.1583 16.275 48.45L15.2833 50.4917ZM10.2666 47.3417C9.62496 46.875 9.04163 46.35 8.45829 45.7667L10.0333 44.1333C10.5583 44.6 11.0833 45.125 11.6666 45.5333L10.2666 47.3417ZM6.06663 43.2C5.59996 42.5583 5.07496 41.9167 4.66663 41.275L6.53329 40.05C6.94163 40.6333 7.34996 41.2167 7.81662 41.8L6.06663 43.2ZM2.91663 38.2417C2.56663 37.5417 2.27496 36.7833 1.98329 36.0833L4.08329 35.2667C4.31663 35.9667 4.60829 36.6083 4.95829 37.25L2.91663 38.2417ZM0.933293 32.6417C0.758293 31.8833 0.641626 31.0667 0.524959 30.3083L2.74163 30.0167C2.85829 30.7167 2.97496 31.4167 3.14996 32.1167L0.933293 32.6417ZM2.56663 26.8083H0.291626C0.291626 26.05 0.349959 25.2333 0.408293 24.475L2.68329 24.7083C2.62496 25.35 2.56663 26.05 2.56663 26.8083Z" fill="#2E2E2E"/>
    <path d="M52.0333 31.2417L49.8166 30.8917C49.9333 30.1917 50.0499 29.4917 50.1083 28.7333L52.3833 28.9083C52.2666 29.6667 52.2083 30.4833 52.0333 31.2417ZM50.1083 25.4667C50.0499 24.7667 49.9916 24.0083 49.8749 23.3083L52.0916 22.9583C52.2083 23.7167 52.2666 24.5333 52.3249 25.2917L50.1083 25.4667ZM49.1749 20.1583C48.9999 19.4583 48.7666 18.7583 48.4749 18.1167L50.5749 17.3C50.8666 18.0583 51.0999 18.7583 51.3333 19.5167L49.1749 20.1583ZM47.1333 15.2C46.7833 14.5583 46.3749 13.975 45.9666 13.3917L47.8333 12.1083C48.2999 12.75 48.7083 13.45 49.0583 14.0917L47.1333 15.2ZM43.9833 10.825C43.5166 10.3 42.9916 9.77499 42.4666 9.30832L43.9833 7.61666C44.5666 8.14166 45.1499 8.72499 45.6749 9.30832L43.9833 10.825ZM39.8999 7.26666C39.3166 6.85832 38.6749 6.44999 38.0916 6.09999L39.1999 4.11666C39.8999 4.52499 40.5416 4.93332 41.1833 5.39999L39.8999 7.26666ZM35.1749 4.75832C34.4749 4.46666 33.8333 4.23332 33.1333 3.99999L33.7749 1.84166C34.5333 2.07499 35.2916 2.30832 35.9916 2.59999L35.1749 4.75832ZM22.4583 3.35832L22.1083 1.14166C22.8666 1.02499 23.6833 0.908323 24.4416 0.84999L24.6166 3.12499C23.8583 3.18332 23.1583 3.24166 22.4583 3.35832ZM29.9833 3.29999C29.2833 3.18332 28.5249 3.12499 27.8249 3.06666L27.9416 0.791656C28.6999 0.84999 29.5166 0.908323 30.2749 1.02499L29.9833 3.29999Z" fill="#2E2E2E"/>
    </g>
    <defs>
    <clipPath id="clip0_0_194">
    <rect width="56" height="56" fill="white" transform="translate(0 0.5)"/>
    </clipPath>
    </defs>
  </symbol>
</svg>